<svg version="1.0" id="svg17" sodipodi:docname="hyena.svg" inkscape:version="1.4.4 (dcaf3e7d9e, 2026-05-05)" xmlns:inkscape="http://www.inkscape.org/namespaces/inkscape" xmlns:sodipodi="http://sodipodi.sourceforge.net/DTD/sodipodi-0.dtd" xmlns="http://www.w3.org/2000/svg" xmlns:svg="http://www.w3.org/2000/svg" viewBox="44.48 13.75 391.97 464.32">
  <defs id="defs17"/>
  <sodipodi:namedview id="namedview17" pagecolor="#ffffff" bordercolor="#cccccc" borderopacity="1" inkscape:showpageshadow="0" inkscape:pageopacity="1" inkscape:pagecheckerboard="0" inkscape:deskcolor="#d1d1d1" inkscape:zoom="17.459589" inkscape:cx="119.04633" inkscape:cy="276.83928" inkscape:window-width="2560" inkscape:window-height="1363" inkscape:window-x="0" inkscape:window-y="0" inkscape:window-maximized="1" inkscape:current-layer="svg17"/>
  <path d="M164.9 381.6c-1.2-2.05-1.15-4.8.35-14.75.65-4.6 1.8-12.8 2.5-18.25 1.75-13.35 3.55-24.5 5.35-32.6 2.8-12.95 3.95-19.8 4.4-27 .5-8.25-.05-22.15-1.25-29.2-.4-2.5-1.2-7.6-1.75-11.3-1.6-10.5-2.05-13-2.55-13-.6 0-2.2 3.3-2.9 5.9-.55 1.95-.7 2.1-2.25 2.1-1.85 0-2.55.6-3.05 2.65-.3 1.1-.65 1.35-1.9 1.35h-1.5l.3 5.9c.2 4.1.75 7.6 1.8 11.75.85 3.25 1.55 6.6 1.55 7.45v1.55l-3-.3-3-.35-1.25 2c-1.1 1.75-1.45 1.95-3.6 2.1-1.95.1-2.4.35-2.55 1.15-.1.55-.7 2.65-1.4 4.65l-1.3 3.6h-1.85c-1.45 0-2-.25-2.45-1.1-.3-.65-.55-.85-.55-.5-.05.55-1.1 3.45-4.9 13.1-2.05 5.15-7.95 18.15-11.65 25.5l-3.4 6.75-8 7.4c-6.7 6.15-8.25 7.35-9.55 7.35-1.05 0-1.55-.25-1.55-.75 0-1.05-.4-.95-4.7 1-4.6 2.1-7.1 2.3-7.45.65l-.2-1.15-.1 1.15c-.05.95-.35 1.1-2.05 1.1-1.85 0-2.15-.25-5.2-3.85-4.05-4.8-4.8-6.9-4.8-13.05 0-3.65.45-6.55 1.95-13.25 2.5-10.9 2.7-12.35 2.6-16.5-.05-3.05.05-3.45.95-3.7.55-.15 1-.3 1-.35 0-.1-.35-1.15-.8-2.45-.65-2-1-2.35-2.1-2.35-.8 0-1.75-.55-2.55-1.5-1.65-1.95-7.7-4.15-11.45-4.15-2.1 0-2.95.25-3.75 1.1-.6.55-.8 1.05-.45 1.05.95 0 .7 2.8-.45 5.05-1.2 2.4-2.45 7.9-4.15 18.55-1.85 11.35-4.35 20.35-6.45 23.3-1.55 2.2-1.85 2.35-4.05 2.5l-2.4.15.35-6.4c.2-3.5.65-8.3 1.1-10.65.65-3.9 1.4-9.55 2.65-21 .25-2.35.5-5.4.5-6.8 0-1.85.3-2.95 1.05-3.9.55-.7.8-1.3.5-1.3-.9 0-1.1-1.95-.35-3.6.4-.9 1-2.55 1.35-3.65.3-1.1.8-2.5 1.1-3.15.95-2.05-.4-8.25-3.2-14.6-1.4-3.15-2.9-6.65-3.3-7.75s-1.1-2.4-1.5-2.85c-.65-.7-.65-1-.15-1.65.5-.6.5-.9 0-1.5-.6-.75-.55-1.5.45-5.75.3-1.25 1.1-5.6 1.8-9.75.65-4.1 1.65-9.75 2.25-12.5 1.75-8.4 3.5-18.85 3.5-21.05 0-1.25.3-2.35.75-2.7.85-.7 1-2.3.3-2.75-.3-.15-.4-3.05-.25-7.15.2-4.65 0-9.55-.55-15.35-.5-4.65-1.05-11.55-1.25-15.25s-.8-8.55-1.3-10.75c-1.8-8-.95-23.7 1.4-26.25 3.05-3.25 13.35 2.2 19.25 10.15 1.15 1.65 2.4 3.85 2.7 5 1.05 3.9 2.85 13.65 3.7 19.75.45 3.4 1.25 8.1 1.85 10.5 1.7 7.25 1.7 8.35.2 9.4-.75.45-3.15 3-5.3 5.6-3.75 4.5-3.95 4.85-3.15 5.7.5.55 1.5.9 2.75.9 1.9 0 1.9 0 1.9 2 0 1.1-.25 2-.55 2-2.3 0-6.05 5.75-6.75 10.3-.45 3.2 1.3 8.05 4.1 11.15 2.4 2.65 2.85 4.85 1.5 6.85-.4.55-1 2.6-1.35 4.5-1.15 6.65.25 26.8 2.1 30.3.45.85.6.85 2.35.1 2.95-1.2 4.3-2.85 8.25-10.35 4.15-7.85 7.05-14.6 7.6-17.75.25-1.6.55-2.1 1.25-2.1 1.5 0 1.7-2.75.55-7.6-.55-2.3-1.45-5.45-2-6.95-.6-1.5-1.05-3.5-1.05-4.45v-1.75l4.25-1.45c6.65-2.25 11.15-5.75 15.35-11.95 2.25-3.3 4.4-7.9 4.4-9.35 0-.9-.35-1-2.75-1H113v-1.6c0-1.6 1-3.85 5.35-11.9 1.95-3.65 8.4-17.5 11.6-24.85.85-2 2.65-6.9 4.05-10.95 2.9-8.75 3.65-9.7 7.2-9.7 5.1 0 7.25 2.45 18.2 20.9 2.8 4.65 3.1 5.45 3.4 8.85l.35 3.75 2-1.15c2.25-1.2 5.1-5.15 6.7-9.1.9-2.3 1.15-2.55 3.15-3.05l2.15-.5-1.45-1.35c-1.5-1.45-5.4-2.85-7.8-2.85-1.3 0-1.4-.15-1.4-1.95 0-1.1.25-2.15.5-2.3.55-.35 6.15-1.2 15.75-2.5 5.2-.65 8.5-1.45 9.4-2.25.2-.2-.7-1.15-2-2.2-3.1-2.4-4.15-4.1-4.15-6.65 0-1.9.2-2.2 1.6-2.95 1.3-.7 2.6-.75 7.85-.5 3.45.15 9.55.45 13.55.6l7.2.35-1.4-1.85c-5.45-7.15-8.8-12.8-8.8-14.8 0-1.35.15-1.5 1.55-1.5.85 0 3.6.8 6.05 1.8 2.45.95 5.25 1.9 6.25 2.05 1.8.3 1.8.3 1-.85-.45-.6-2.15-2.55-3.8-4.25-2.6-2.65-3.05-3.4-3.05-4.95 0-2.05.3-2.15 5.9-1.3 6.1.85 12.6-1.1 18.5-5.7 4.45-3.4 4.45-3.45 1.5-4.5-4.85-1.7-6.25-3-9.6-8.95-.75-1.3-2.35-3.1-3.55-4-1.9-1.4-2.2-1.85-2.25-3.45v-1.9h4.9c2.65 0 7.55-.25 10.85-.55l6-.6.05-4.8c0-4.4.15-5.15 1.8-8.85 1-2.2 3.25-6.6 5-9.75s3.35-6.1 3.55-6.6c.75-1.95 3.8-2.25 9.35-.95 4.55 1.1 7.5.7 7.5-1.1 0-1.55-10-6.65-14.6-7.45-3.85-.65-11.1.05-15.15 1.4-1.25.45-2.9.75-3.65.65-1.2-.15-1.35-.35-1.5-2.45l-.15-2.35 2.15-.2c2-.2 8.25-1.35 13.4-2.4 6.4-1.35 27.45-1.95 35.6-1 14.6 1.7 31.4 8.7 55.65 23.3 7.15 4.3 14.5 8.6 16.4 9.6 3.1 1.65 3.35 1.85 3.35 3.4v1.65h-3.55c-1.95-.05-3.6.05-3.7.15-.15.1 2.1 2.3 4.9 4.85 2.8 2.6 9.85 9.2 15.7 14.75 9.95 9.5 10.55 10.15 10.6 11.95.05 1.7-.05 1.85-1.25 1.85-.75 0-2.85-.55-4.75-1.25-1.9-.65-3.45-1.05-3.45-.85s-.8.3-1.8.2c-1.3-.15-1.75-.05-1.5.35.2.3.65.55 1.05.55.6 0 1.15.85 1.55 2.25.05.3 1.55 3.65 3.35 7.5s4.4 10.15 5.85 14c4.9 13.15 10.1 26 13.05 32.2 2.95 6.25 3.35 7.95 2.45 10.75-.8 2.55-2.9 12-4.95 22.05-1.05 5.25-2.45 10.85-3.1 12.5-1.15 2.85-1.3 3-3.1 3.15-2.7.25-4.9-1.35-8.25-5.85-6.4-8.7-8.15-10.95-8.75-11.2-.65-.25-1.3 3.1-3.65 18.9-1.5 10-4.8 29.25-6.9 40.5-1.2 6.35-1.95 11.7-1.7 11.95 1.1 1.3.35 3.8-2 6.9-2.55 3.35-7.55 10.85-8.85 13.35-.9 1.75-1 11.65-.25 25.05.25 4.55.6 11.75.75 16l.3 7.75-3.3 2.75c-4.9 4.05-5.25 4.2-10.5 3.85-6.1-.4-9.05-1.45-12.7-4.5l-3.05-2.55v-2.85c0-1.55-.15-4.5-.3-6.6-.3-3.55-.45-3.85-1.45-3.85-.75 0-1.25-.4-1.45-1.1-.45-1.8-.35-3.8.25-4.2.35-.2.45-1.1.25-2.4-.15-1.1-.85-5.85-1.55-10.55-1.8-12.1-2.4-25.2-1.75-37.75.3-5.65.7-13.65.85-17.8.25-7.2.25-7.55-.7-7.8-1.2-.3-5-6.6-10.95-18.15-5.4-10.45-7.35-14.9-11-24.5-1.5-3.85-2.7-6.7-2.7-6.35 0 .3-.5.6-1.1.6-1.5 0-11.65 5.4-18.4 9.85-14.65 9.6-27.9 21.3-34.7 30.6-1.45 1.95-2 3.25-2.2 5.1-.2 2.3-.3 2.45-1.65 2.45-1.3 0-1.45.15-1.45 1.65 0 .85-.55 6.55-1.25 12.6-2.95 26.2-5.35 34.8-17.85 64.25-9.55 22.45-12.4 30.1-12.4 33.1 0 .95-1.25 1.25-1.75.4-.55-.85-1.1-.15-1.75 2.25-.45 1.55-.45 2.45-.1 2.85.35.45.35 1.45.05 2.9-1.05 5.5-3.45 20.85-4.15 27l-.8 6.75-3.3 3.05c-6.5 6-12.45 8.75-19.7 9.1l-4.75.2zm-70.2-42.1c.65-1.25 1.85-4.4 2.7-7 1.5-4.8 4.2-16.05 3.9-16.35S94.1 336.8 92.75 342c-.4 1.6.3.7 1.95-2.5M195 309.2c.95-2.65 1.4-7.25.65-7.15-.55 0-6.75 8.45-7 9.5-.15.45.15 1.7.65 2.75l.9 1.85 1.9-2.1c1-1.2 2.3-3.35 2.9-4.85m-83.95-20.3c2.35-.8 7.05-4 8.65-5.95 2.9-3.45 5.8-11.35 5.8-15.8 0-4.9-2.55-12-4.85-13.5-1.1-.7-1.25-.7-2.15.1-.55.5-2.55 4.15-4.5 8.1-1.9 3.95-4.55 9-5.95 11.3-2.15 3.55-5.05 10.65-5.05 12.3 0 .3.3.55.7.55s1.15.65 1.6 1.5c.8 1.3 1.5 1.7 3.5 1.95.3 0 1.3-.2 2.25-.55m93.5-38.65c2.3-1.75 5.25-6.2 6.3-9.65.45-1.55 1.5-3.8 2.3-5 1.45-2.15 2.85-5.15 2.85-6.1 0-.75-3.85-.6-5.45.2-.75.4-1.95 1.65-2.7 2.7-.7 1.1-2.55 3-4.1 4.2-5.3 4.1-6.8 10.25-3.4 14 1.1 1.2 2.15 1.1 4.2-.35m134.05-2.75c.45-.95 1-3.55 1.2-5.75.3-3.25.6-4.3 1.7-5.75.75-.95 1.5-2.15 1.65-2.6.3-.9-2.2-6.4-3.4-7.4-.65-.55-.75-.25-.75 2 0 2.95-1 7.25-2.45 10.55-1.05 2.3-1.6 9.15-.85 10.35.65 1.1 2 .45 2.9-1.4m-194.1-58.65c1.65-6.6 2.5-15.9 2.6-30.3l.15-13.7-6.1 12.45C133.4 173.05 129 184 129.7 185.8c.15.45 1 .7 2.3.7 2.75 0 6.2 1.65 7.55 3.6.6.9 1.55 2.15 2.15 2.8 1.25 1.4 1.45 1.1 2.8-4.05m196.45.85c2.05-2.35 4.85-7.75 6.3-12.15.75-2.35.8-2.8.15-3.25-.4-.3-.95-.95-1.2-1.45-.5-.85-.85-.7-4.35 1.65-6 4-10.45 10.45-9.65 13.85.2.75 1.15 2.1 2.1 2.95 1.55 1.5 1.85 1.6 3.2 1.1.85-.25 2.35-1.5 3.45-2.7M198 186.95c3.9-3.1 6.15-8.8 6.85-17.3.3-4 .25-4.15-.8-4.15-.95 0-1.05-.25-1.05-2.95 0-2.85-.05-3-1.8-4.1-2.4-1.45-3.95-.9-6.05 2.2-4.2 6.25-6.6 19.1-4.45 24.1 1.05 2.45 2.7 4.25 3.85 4.25.45 0 2.05-.9 3.45-2.05m51.85-34.55c4.1-2.45 9.2-10.15 12.4-18.65 2.4-6.25 1.15-8.05-3.85-5.7-6.9 3.2-14.55 15.55-13.8 22.2.45 3.9 1.6 4.4 5.25 2.15m55.45-12.5c.95-1.8.75-4.9-.55-9.25-.75-2.5-.9-2.65-2.45-2.65s-1.7.15-2 1.9c-.75 4.7-.2 8.05 1.7 10.1 1.75 1.9 2.3 1.9 3.3-.1m24.3-12.95c3.3-1.7 6.7-5.55 8.95-10.2 2.15-4.45 4.65-13.5 5.2-19.05.35-3.15.35-3.3-.55-2.8-.55.3-1.45 1.05-2 1.7-4.1 4.4-15.2 25.75-15.2 29.1 0 .95.8 2.3 1.35 2.3.1 0 1.1-.45 2.25-1.05M275.8 80.8c4.65-4.7 7.75-9 10.9-15.1 1.5-2.9 1.8-4.05 1.8-6.55 0-2.65-.15-3.15-1-3.4-2.5-.8-11.55 6.7-16.6 13.8-3.15 4.35-5.85 10.2-6.2 13.3-.3 2.3-.2 2.55 1.05 3.55l1.35 1.05 2.05-1.05c1.15-.55 4.15-3.1 6.65-5.6" fill="#eab9a0" id="path3"/>
  <path d="M93.25 219c-2.25-2.7-6.75-6.9-6.75-6.3 0 .1.45 1.25 1 2.55s1 3 1 3.8c0 1.3-.15 1.45-1.7 1.45-3.1 0-9.15-5.8-11.4-10.85-1.45-3.3-1.8-10.3-.7-14.45 1-3.75.95-3.7.05-3.7-1.25 0-.85-.9.75-1.6 1.95-.85 1.9-1.4-.1-1.45-.9-.05-1.25-.15-.8-.3.5-.1.9-.45.9-.7s.5-.45 1.15-.5c1-.05 1-.1-.25-.6-1.15-.45-1.4-.85-1.4-2.35 0-1.55.5-2.25 4.05-5.75l4-4-.3-3c-.2-1.65-.8-5.6-1.35-8.75-1.2-6.85-1-10.4 1.15-20.75 1.95-9.25 2.2-10.25 7.55-26.35l4.65-13.9h1.6c1.6 0 1.65.05 1.65 2.15l.05 2.1 1.4-1.65c1.35-1.55 5.25-8.3 13.05-22.3 1.95-3.6 5.15-8.95 7.1-11.95s4.35-7 5.35-8.9c1.7-3.2 1.9-3.45 3.5-3.45h1.7l-.4 5.6c-.4 6.4-.65 6.4 4.1.15 7.1-9.3 17.4-17.5 36.05-28.7 9-5.35 14.2-8.05 15.65-8.05.95 0 1.05.25.85 2.65l-.15 2.65 4.5-1.95c7.55-3.25 17.35-8.05 20.4-10 2.95-1.9 5.1-2.3 6.75-1.3.65.4 2.65.15 8.25-1C230.2 16.7 235 16 236.75 16H240v1.45c0 .8-.2 2.05-.5 2.8l-.5 1.25 4.9-.35c2.65-.25 7.9-.4 11.6-.4 6.7 0 6.8 0 11.25 1.9 2.5 1.1 5.4 2.2 6.5 2.55 2.8.8 3.25 1.15 3.25 2.75 0 1.05-.3 1.5-1.1 1.75-1.95.5-8.45.35-11.5-.3-2.65-.55-3-.5-4.25.45-.8.55-1.45 1.35-1.55 1.8s-1.95 4-4.15 7.95C248.6 49.2 247 53.45 247 57.95v3.45l-5.35.35c-3 .25-9 .25-13.4.05-9.1-.35-8.95-.55-2.6 3.7 2.8 1.9 4.6 3.55 5.7 5.2 3.15 4.85 6.4 7.15 11.3 8.05 1.45.3 1.85.6 1.85 1.45 0 1.8-1.3 3.1-5.1 5.2-7.05 3.8-8.9 4.25-17 3.95-3.95-.15-7.9-.45-8.85-.65l-1.65-.35 2.75 2.95c5.2 5.65 5.85 6.5 5.85 8.15 0 1.4-.15 1.55-1.65 1.55-.85 0-3.15-.45-5.1-1-2-.55-3.55-.8-3.75-.5-.15.25-.55.25-1 0-.4-.3-.9-.5-1.1-.5-.55 0 2.85 6.25 5.4 9.9 1.6 2.3 2.2 3.65 2.2 4.95v1.8l-5.6-.35c-3.1-.15-8.05-.55-11-.9-5.9-.6-8.15-.25-10.6 1.65-1.95 1.5-1.65 2.9 1.25 5.85 1.4 1.45 2.75 2.6 3 2.6s.45.75.45 1.7v1.65l-3.1.35c-7.15.8-22.4 4.75-22.4 5.8 0 .2 1.2.6 2.65.95 1.4.35 3.6 1.1 4.85 1.7 2 1 2.25 1.3 2.4 3 .15 1.45-.05 1.9-.75 2.15-2.2.7-3.05 1.4-4 3.35-.55 1.15-2 3.15-3.15 4.5-1.9 2.15-2.3 2.35-4.3 2.35H163l-4.15-8.6c-6.45-13.35-11.4-20.2-16-22.15-1.4-.6-1.75-.55-2.85.25-.7.5-1.6 1.55-2 2.35-.4.75-2.1 4-3.8 7.15-3.05 5.6-16.35 33.8-18.25 38.6-.5 1.35-.95 3.35-.95 4.45 0 1.3-.4 2.5-1.05 3.35l-1.05 1.35 1.2.3c.6.2 2.2.35 3.55.4 2.35.05 2.35.05 2.35 1.8 0 1.4-.85 2.75-4.95 7.9-2.75 3.45-5.85 6.95-6.9 7.8-2.6 2.15-7.25 4.3-10.9 5.05-5.65 1.1-5.75 1.15-3.5 1.45l1.95.3 1.65 6.25c.85 3.45 1.6 7.55 1.6 9.15L99 222h-1.6c-1.4 0-2.05-.5-4.15-3" fill="#fdab7b" id="path4"/>
  <g fill="#7a5949" id="g6">
    <path d="M151.75 473.3c-2.95-7-2.15-16.65 2.75-34.65 3.05-11.25 7.9-32.95 9.2-41.25 1.45-9.55 1.95-15.1 1.35-15.3-.65-.2-.75-3.6-.1-3.6.3 0 .9.7 1.4 1.55.9 1.55.95 1.55 4.15 1.3 5.95-.5 12.2-3.6 18.35-9.15 2.95-2.65 3.5-2.95 4.1-2.35.55.6.55 1.7.1 6.05-1.15 11.25-1.55 17.95-2 36.6-.95 36.3-1.55 41.4-5.55 49.25-.55 1.1-1 2.4-1 2.9 0 .9-.1.9-1.2.2-1.25-.85-1.9-.65-1.5.4.3.75-2.75 2.75-4.2 2.75-.55 0-1.2.25-1.35.5-.15.3-1 .5-1.8.5-1.65 0-5.5 1.75-6.1 2.8-.2.4-.65.7-.95.7-.35 0-1.55.45-2.75 1.05-1.55.75-3.55 1.1-7.15 1.3l-5 .3zM414.3 397.15c-1.8-7.8-7-19.15-13.1-28.5-2.65-4.15-3.5-4.8-4-3.4-.2.45-.95.75-2 .75-1.55 0-1.7-.1-1.7-1.55 0-3.1-1.6-12.1-3.5-19.8-2.45-10-2.75-11.85-4-23.1-.55-5.05-1.1-9.3-1.2-9.4s-1.4.95-2.95 2.35c-2.1 1.9-3.1 2.5-4.35 2.5h-1.6l.25-2.6c.1-1.45 1.05-4.8 2.1-7.35 2.25-5.75 4.9-16.35 6-23.8.45-3.05.9-10.05 1-16 .15-9.85.1-10.65-.9-12.6-1.15-2.4-1.8-2.75-1.9-1-.05 1.05-.05 1.05-.4-.15-.25-1-.7-1.3-2.15-1.4-1.7-.15-1.85-.3-3.5-4-.95-2.1-3.15-7.55-4.9-12.1s-3.6-8.7-4.1-9.3c-1.2-1.35-1.15-3.75.35-11.8 2.75-14.95 5-31.45 5.55-40.55.25-4 .5-5.35 1.05-5.35.35 0 .65.3.65.7s.55.85 1.2 1c1.15.3 2.3 1.7 9.4 11.35 1.55 2.1 3.65 4.35 4.7 4.95 1.75 1.1 1.85 1.15 2.5.25 1.15-1.55 2.65-6.75 4.2-14.75 1.7-8.65 4.25-19.9 5.05-22.35.35-1.1.35-1.9 0-2.6-.75-1.4-.7-1.55.7-1.55.85 0 1.25.25 1.25.9 0 .5.2 1.1.45 1.35.9.9 6.5 15.55 8.25 21.55 5.15 17.45 7.1 27.45 9.8 50.2.55 4.8 1.3 9.65 1.55 10.75.3 1.05.5 3.75.45 6-.2 6.8-.1 8.25.75 8.25s1.4 2 2.15 7.8c.3 2.25 1.45 6.85 2.55 10.25s2.4 7.9 2.85 9.95c1.3 5.5 1.15 13.7-.3 21.75-1.15 6.3-1.2 7.35-1.25 32.75-.05 33.4-.15 34.1-8.9 60.9l-4.1 12.6h-1.5c-1.5 0-1.55-.1-2.45-3.85M304 397.15c-.95-.75-1.8-1.55-1.9-1.75-.1-.25-.45-.4-.8-.4-.95 0-3.55-2.95-5.55-6.25-2.45-4.1-4.1-9.65-4.8-16.25l-.6-5.55 2.45-3.4c5.4-7.6 16.7-23.2 21.7-30.05 2.95-4 5.9-8.25 6.6-9.5 1.35-2.35 2.4-7.5 2.4-11.95 0-1.95.2-2.55.75-2.55.4 0 .75.3.75.65 0 1.1 5.8 5.55 8.35 6.45 3.55 1.2 8.75 1.65 10.3.8 1.95-1 7.8-6.05 7.8-6.75.05-.7.85-.9 1.2-.25.15.2.5 4.1.85 8.65.7 9.35.6 9.8-3.2 17.4-.95 1.9-1.65 3.55-1.5 3.7.35.35-1.2 3.35-1.7 3.35-.25 0-.9 1.05-1.55 2.4-7 14.45-22.05 37.2-32.2 48.75-3.25 3.65-3.5 3.85-5.5 3.85-1.5 0-2.6-.4-3.85-1.35M91.65 356.15c-1.35-.25-2.3-2.6-2.05-5.15.15-1.95.15-2-1.4-2-.85 0-1.8-.3-2.1-.65s-1.75-1.2-3.2-1.8c-1.45-.65-3.45-1.55-4.4-2.05-5.3-2.65-14.2-5-22.8-6-5.55-.65-7-1.2-5.6-2.05 3.25-1.9 6.3-10.95 8.7-25.85 1.7-10.65 2.95-16.15 4.2-18.55l1.05-2.1-1.25.35c-.65.15-1.3.05-1.5-.2-.35-.55 1.85-3.95 2.3-3.6.2.15.65-.1 1-.55.35-.4 1.55-1.05 2.7-1.4 1.75-.55 2.45-.5 5.75.45 6.2 1.8 7.95 2.6 9.25 4.2 1 1.25 1.3 1.4 1.7.8.65-1.1 1.05-.4 2.35 4.1 1.15 3.95 1.15 4.65 0 4.65-.4 0-.55.75-.45 1.95.2 2.7-.7 8.25-2.95 18.15-2.1 9.3-2.4 13.6-1.2 17.2.7 2.1 6.8 9.95 7.7 9.95.25 0 .6-.8.75-1.75.35-1.9 1.8-2.45 1.8-.7 0 1.65 1.25.8 1.4-.95.15-1.3.4-1.6 1.4-1.6 1.5 0 1.5.05-.1 2.8-.7 1.2-1.2 2.2-1.05 2.2.1 0 2.55-1 5.35-2.3 2.85-1.25 5.45-2.15 5.8-2 .4.15.7.75.7 1.35 0 .9.1.95.75.45.65-.55.75-.4.75.8s-1.05 2.4-5.7 6.85c-5.9 5.55-6.2 5.7-9.65 5M194 313.05c0-.85-.4-1-2.6-1.15l-2.65-.15-.15-1.9c-.2-2.6.95-3.85 3.45-3.85 2.95 0 3.45.35 3.45 2.5 0 1.05.25 2 .55 2.1.4.15.3.7-.25 1.8-.95 1.8-1.8 2.1-1.8.65M77.15 256.5c-.6-.25-1.2-.85-1.35-1.35-1.45-4.85-2.35-13.6-2.3-23.15 0-7.75.6-12.45 1.85-14.3.6-.95.65-1.35.15-1.95-1.3-1.55 2-.8 4.15.95 1.8 1.45 7.8 4.8 8.55 4.8.15 0-.3-1.05-.95-2.3-.7-1.3-1.25-3.2-1.25-4.2 0-1.85.05-1.9 2.1-2.1 1.9-.2 2.3 0 4 1.7 1.05 1.05 1.85 2.2 1.8 2.55-.1.3.15.55.45.5.35-.1 1.15.55 1.75 1.4l1.15 1.55.3-1.7.3-1.65.1 1.9c0 1.1-.2 1.85-.55 1.85-.3 0-.1.5.5 1.15 1.25 1.3 1.45 3.35.4 3.35-.45 0-.85.8-1.05 2.1-.55 3.05-3.35 9.75-7.35 17.25-4.2 7.95-5.25 9.35-8.55 10.95-2.8 1.35-2.65 1.3-4.2.7M201.5 243.75c0-5.1 2.45-8.45 5.95-8.15 1.7.15 1.8.25 1.95 2.1.25 2.95-.2 4-2.65 6.5-1.65 1.75-2.6 2.3-3.75 2.3-1.5 0-1.5 0-1.5-2.75M334.5 246.1c-.8-.35-.9-1.7-.3-4.7.4-2.1 1.35-2.6 4.35-2.3 1.7.15 1.7.2 1.85 2.85.15 2.15-.05 2.85-.85 3.6-1 .95-3.55 1.2-5.05.55M335 185.6c0-1.9.35-2.95 1.55-4.75 1.95-2.95 3.2-3.85 5.45-3.85 2.1 0 3.5 1.35 3.5 3.4 0 1.65-.05 1.75-3.65 5-2.5 2.2-3.25 2.6-4.9 2.6H335zM192.9 179.45c-1.85-1.05-.65-11.8 1.65-15 .85-1.2 1.35-1.45 3.2-1.45 1.6 0 2.35.25 2.7.9.5.9.65 10.85.2 13.25-.15.85-.75 1.65-1.65 2.1-1.65.85-4.85.95-6.1.2M163 154.75v-2.25h2.25c2.7 0 3.05 1.05.75 2.25-.8.45-1.5 1.1-1.5 1.5s-.35.75-.75.75c-.55 0-.75-.6-.75-2.25M248.8 147.7c-.75-2-.25-5.55 1.25-8.7 2.2-4.65 3.1-5.5 6.05-5.5h2.4v2.15c0 1.15-.6 3.45-1.3 5.1s-1.4 3.45-1.55 3.95c-.2.55-.95 1.65-1.75 2.4-1.65 1.6-4.6 1.95-5.1.6M172 142.15c0-.45 1.35-1.25 3.2-1.85.9-.3.9-.35.05-1.3-.9-1-.85-1 .9-1s1.85.05 1.85 1.7c0 .95-.2 1.9-.5 2.05-.9.55-5.5.9-5.5.4M300.5 134.25v-2.75h1.7c2.85 0 3.3.4 3.3 2.75s-.45 2.75-3.3 2.75h-1.7zM170.4 132.2c-1-.3-1.15-.95-.4-1.45 1.2-.75 6.15-1.75 7.3-1.45 1.4.35 1.65 2 .35 2.4-1.5.4-6.35.75-7.25.5M331.1 116.55c.15-1.3.95-3.9 1.8-5.75 1.55-3.35 1.6-3.35 3.45-3.2l1.9.15-.1 2.95c-.1 3.05-.9 5.8-1.7 5.8-.25 0-.45.25-.45.55 0 1-1.65 1.9-3.45 1.95h-1.7zM187.05 116.9c-.05-1.4.2-1.9.95-2.15.55-.15 1-.55 1-.8 0-.5 3.15-.6 4.9-.15.65.2 1.1.7 1.1 1.25 0 .8-.4.95-2.25.95-2.4 0-4.95 1-5.4 2.1-.15.35-.3-.2-.3-1.2M201.9 116.65c-.5-.1-.9-.5-.9-.9 0-.7 1.5-1.25 3.65-1.25 1.1 0 1.35.2 1.35 1.25 0 1.1-.2 1.25-1.6 1.2-.9-.05-2.05-.15-2.5-.3M211.1 115.65c.1-1.1.45-1.45 1.55-1.55 1-.1 1.35-.4 1.15-.9-.15-.4.05-.7.45-.7.45 0 .75.45.75 1.05s.4 1.15 1 1.3c.55.15 1 .7 1 1.2 0 .85-.4.95-3.05.95-3 0-3 0-2.85-1.35M270.35 77.15C270.15 77 270 76 270 75c0-2.25 2-5.45 5.2-8.4 2.1-1.95 2.55-2.15 4.45-2l2.1.15.15 2.8c.15 2.75.1 2.85-2.45 5.65-1.45 1.55-3.25 3.2-4 3.55-1.45.75-4.55 1-5.1.4M235 61.8c0-1.2.15-1.3 2.25-1.3 1.6 0 2.35.25 2.6.75.4 1.1 0 1.35-2.6 1.6-2.15.25-2.25.25-2.25-1.05M238 23.6c0-3.3 1.5-5.5 2.15-3.15.2.9.35.9 2.15.3 2.85-1 4.2-.95 4.2.2 0 1.1-2.25 2.05-4.7 2.05-.85 0-2.1.35-2.7.8-1 .7-1.1.7-1.1-.2" id="path5"/>
    <path d="M241.75 19c.85-.2 2.2-.4 3-.4 1.45 0 1.45 0 .25.4-.7.2-2.05.4-3 .4h-1.75z" id="path6"/>
  </g>
  <g fill="#684533" id="g8">
    <path d="M157 474.3c0-.45.3-.8.7-.8s.8-.25.9-.55c.3-.9 2.95.05 2.8 1-.2 1.15-4.4 1.45-4.4.35M150.45 471.15c-.45-1.5-.7-4.8-.7-8.9.05-7.2 1.05-13.1 4-23.25.9-3.15 2.45-9.45 3.5-14 1-4.55 2.5-11.05 3.3-14.5 1.8-7.8 3.2-16.45 4-24.25.35-3.3.65-6.05.7-6.15.05-.05.5 0 .95.2.6.2.8.95.8 2.65 0 2.35-1 11.2-2 17.15-1.15 7.3-6.2 29.65-9.2 40.9-3.35 12.4-4 16.1-4 22 0 4.1.25 5.8 1.05 7.9l1.05 2.6h-1.4c-1.2 0-1.45-.3-2.05-2.35M163 472.75c0-.6 2.1-2.25 2.75-2.15.35.1.7-.05.7-.3 0-.65 6.5-3.4 7.35-3.1.4.15.85-.05 1.05-.5.2-.55.65-.7 1.45-.5s1.5 0 2.2-.7 1.4-.9 2.25-.7c.7.15 1.25.5 1.25.7 0 .75-1.65 1.75-2.75 1.6-.65-.1-1.25.15-1.4.6-.2.45-.65.8-1 .8-.4 0-2.3.8-4.3 1.75-1.95.95-3.9 1.75-4.3 1.75-.35 0-.85.25-1 .5-.3.5-4.25.75-4.25.25M301.5 394.25c0-.95.2-1.15.9-.9.45.2 1.3.75 1.8 1.25.95.9.95.9-.85.9-1.65 0-1.85-.15-1.85-1.25M191.8 372.25c.2-.4.05-.75-.25-.75-.75 0-.65-1.05.25-2.25.65-.85.8-.9 1.2-.25.25.4.5 1.5.5 2.4 0 1.25-.2 1.6-1 1.6-.65 0-.9-.25-.7-.75M91.35 356.65c-1.25-.3-2.35-2.75-2.35-5.15 0-1.75-.15-2-1.2-2-.65 0-1.45-.35-1.85-.8-1.95-2.4-11.95-6.1-24.25-9-6.3-1.45-8-1.7-10.8-1.4l-3.4.3v-1.8c0-1.25.2-1.8.75-1.8.4 0 .75.35.75.75 0 .55.55.65 2.55.45 1.55-.15 2.8 0 3.25.35.4.3 1.25.4 1.9.25.7-.15 1.35-.1 1.55.2.15.25.55.35.95.2 1.5-.55 16.15 3.45 20.4 5.65.75.35 1.5.65 1.65.65.55-.05 6.2 3 6.5 3.45.3.55 2.25-1.1 2.25-1.95 0-.25.35-.5.75-.5s.75.35.75.75.35.75.75.75c.9 0 .95-.25-.3 2.95-.8 2.2-.9 2.95-.45 4.1.6 1.45 2.6 2.15 3.45 1.3.4-.4.55-.05.55 1.05 0 1.5-.1 1.6-1.6 1.55-.9-.05-2.05-.15-2.55-.3M351.4 312.65c-.3-1.4.1-2.65.9-2.65.45 0 .7.55.7 1.75 0 1.85-1.2 2.5-1.6.9M188.9 311.95c-.6-.3-.9-1.1-.9-2.2 0-1.6.1-1.75 1.5-1.75 1.3 0 1.5-.2 1.5-1.3 0-1.15.15-1.25 1.9-1.1s1.85.25 2 2.05c.1 1.05-.05 1.85-.35 1.85s-.55-.3-.55-.7c0-1.25-2-1.5-3.1-.4-1.2 1.2-.8 2.1.9 2.1.85 0 1.2.25 1.2 1 0 .8-.35 1-1.6 1-.9 0-2.05-.25-2.5-.55M320.15 299.15c-.7-.25-.8-1.7-.35-4.1.25-1.2.6-1.55 1.5-1.55 1.2 0 1.65 1.15.75 1.7-.25.15-.35.8-.2 1.35.3 1 .35 1 .8.15.45-.8.55-.8 1.1 0 1.1 1.45.35 2.8-1.45 2.75-.85 0-1.85-.15-2.15-.3M85.85 298.45c-.45-.3-.75-.7-.6-1 .2-.25.1-.45-.2-.45s-.4-.35-.25-.75c.2-.4.05-.75-.3-.75s-.5-.35-.3-.85c.2-.45.05-1-.25-1.2-.8-.45-.1-4.1.7-3.8.35.1.65.7.75 1.4.1.65.5 2.35.9 3.75.95 3.15.8 4.35-.45 3.65M62.5 288.6c0-1.55 1.8-3.6 3.15-3.6 1.4 0 1 1.95-.75 3.55-2 1.8-2.4 1.8-2.4.05M384.85 254.65c-.65-.6-.35-1.65.4-1.65.4 0 .75-.3.75-.6 0-1 1 .7 1 1.75 0 .85-1.5 1.2-2.15.5M201.55 246.05c-.85-.55-.55-7.15.35-7.45.35-.1.6-.5.6-.9s.35-.7.75-.7.75-.3.75-.7c0-.85 1.1-1.3 3.05-1.3 1.3 0 1.45.2 1.45 1.5 0 .85.25 1.5.5 1.5.7 0 .65 2.8-.05 4.15-1.2 2.35-3.6 4.35-5.15 4.35-.85 0-1.85-.2-2.25-.45m5.05-5.15c-.05-.25.15-.4.45-.4.25 0 .35-.2.2-.5-.15-.25-.05-.5.2-.5.65 0 .75-1.85.1-2.2-.7-.45-3.1 1.75-3.85 3.5-.4.95-.7 2.25-.7 2.95 0 1.3 0 1.3 1.85-.6 1-1.05 1.8-2.05 1.75-2.25M333.95 243.65c-.1-4.5.4-5.15 4-5.15 2.85 0 2.8-.1 2.25 4.9l-.35 2.6H334zm4.05.5c1.05-.9 1.35-2.9.5-3.4-1.6-1-3.45 1.5-2.45 3.35.6 1.1.7 1.1 1.95.05M93.6 220.45c-3.85-4.55-6.1-6.65-6.1-5.55 0 .25.8 1.95 1.75 3.75 2.4 4.5 2.35 5.05-.5 4.7-3.9-.55-9.1-3.6-13.3-7.8-3.3-3.3-3.95-4.25-4.95-7.25-1.6-4.8-1.25-9.1 1.05-13.7 1.2-2.3 2.2-3.65 3.35-4.3 2.65-1.5 2.9-.65 1.6 5-1.95 8.5-.65 13.5 5.05 19.3 1.75 1.8 3.7 3.5 4.25 3.8 1.05.55 1.05.45-.35-3.05-.75-1.95-1.4-3.9-1.45-4.3 0-.4-.45-1.25-1.05-1.85s-1-1.35-.9-1.65c.45-1.15 4.05 1.45 9.6 7 6.8 6.8 6.7 6.85 4.2-3.05l-1.65-6.25-1.85-.1c-1.05 0-2.2-.35-2.6-.65-1.95-1.6 0-2.95 5.75-4 3.8-.7 8.45-2.8 11.15-5.05 1.65-1.35 11.85-13.6 11.85-14.2 0-.15-.95-.25-2.1-.25-2.7 0-5.9-.85-5.9-1.6 0-.3.45-1.3 1.05-2.2.8-1.3 1.35-1.7 2.5-1.7 1.45 0 1.95.65.95 1.25-1.15.7-.35 1.25 1.9 1.25 3.4 0 6.2.85 6 1.9-.1.45-.7.95-1.3 1.1-.85.2-1.4.95-2.05 2.75-1.1 3.1-1.7 4.25-4.05 7.75-4.05 5.95-8.65 9.55-15.25 11.8-2.2.75-4.1 1.45-4.15 1.5-.1.05.3 1.45.9 3 3.15 8.45 4 17.75 1.55 17.65-.45 0-2.65-2.25-4.95-5M72.1 187.35c-.6-.65-1.1-1.55-1.1-2.1 0-1.05 4.55-6.85 8.4-10.6 2.25-2.25 2.55-2.8 2.1-3.6-.65-1.3-.65-1.55.25-1.55.4 0 .75-.2.75-.5 0-1.15 1.45-.4 1.7.9 1.05 5.5 1.25 4.95-3.45 9.6-4.3 4.25-4.8 5-3.55 5 .4 0 1.2.4 1.8.9.95.8 1.05 1.1.55 2-.5.95-1 1.1-3.5 1.1-2.35 0-3.05-.2-3.95-1.15M334.35 188.15c-.2-.15-.35-1.3-.35-2.5 0-1.6.2-2.15.75-2.15q.75 0 .75-1.5t.75-1.5c.4 0 .75-.45.75-.95 0-1.55 2.35-3.05 4.75-3.05 2.6 0 3.3.75 3.65 3.8.25 2.25.2 2.3-2.8 5.25-2.9 2.8-3.2 2.95-5.5 2.95-1.35 0-2.6-.15-2.75-.35m6.05-4.35c1.65-1.5 2.9-2.85 2.75-3-.2-.15-.05-.3.3-.3s.15-.45-.4-1.05c-.95-1-1.1-1.05-2.2-.3-2.35 1.55-5.45 7.35-3.9 7.35.25 0 1.8-1.2 3.45-2.7M192.5 179.5c-.8-.8-1-1.65-1-4.3 0-3.6 1.3-10.2 2.05-10.2.25 0 .45-.25.45-.55 0-1.1 1.5-1.95 3.45-1.95 1.45 0 2.05.2 2.05.7 0 .4.25.8.6.9.85.3 1.25 13.4.45 13.4-.3 0-.55.45-.55 1 0 1.3-1.45 2-4.2 2-1.65 0-2.6-.3-3.3-1m5.5-2c.65-.35.95-.9.8-1.3s-.1-.7.1-.7.35-2.15.35-4.75-.2-4.75-.4-4.75c-.25 0-.25-.25-.1-.5.15-.3-.05-.65-.55-.85-1.9-.75-4.7 5.8-4.7 11.05 0 2.6 1.75 3.3 4.5 1.8M162.35 155.65c-.2-.15-.35-1.75-.35-3.45 0-3.45.75-4.55 1.9-2.8.4.6 1 1.1 1.35 1.1.95 0 4.7-4.35 5.9-6.85.95-1.95 1.5-2.35 4.6-3.4.9-.3.85-.4-.5-1.25-1.45-.9-4.9-2.15-9.9-3.55-1.65-.45-2.35-.9-2.25-1.45.35-1.65 16.55-6.35 25.3-7.3l3.1-.35-1.4-1.05c-4.05-3-5.85-6.7-4.5-9.3 1-1.95 4.6-3.5 8.1-3.5 3.15 0 12.8.8 17.2 1.45 1.45.25 2.75.25 2.85 0 .15-.2-.7-1.8-1.95-3.55-2.5-3.6-8.3-14.25-8.3-15.25 0-.9.2-.85 4.75.9 4 1.6 10.3 3.55 10.55 3.3.4-.4-7.7-8.7-9.1-9.3-1.75-.7-2.35-1.6-1.9-2.8.4-.95 2.95-.95 8.05 0 5.8 1.1 12 1 15.5-.3 3.1-1.15 11-5.25 11.4-5.95.15-.2-.6-.55-1.65-.75-4.85-.9-8.1-3.2-11.25-8.05-1.45-2.15-5.75-5.65-11.95-9.6-1.35-.8-1.85-2.25-1-2.8.2-.1 4.3 0 9.1.3 4.9.3 11.1.4 14.15.2l5.35-.4v-3.45c0-4.95 2.4-10.9 8.45-20.9 1.4-2.3 2.55-4.6 2.55-5.1 0-1 2.15-2.85 3.85-3.25.65-.2 2.6.05 4.4.5 3.3.8 7.5.95 9.75.35 1.1-.3.85-.45-1.75-1.15-1.65-.45-5-1.65-7.5-2.7l-4.5-1.95h-9.6c-5.3 0-9.65.15-9.65.4 0 .2-.4.35-.85.35s-1.2.35-1.7.8-1.3.7-1.75.5c-.95-.35-.8-2 .5-4.9l.8-1.9h-1.7c-1 0-5 .7-8.95 1.5-7.65 1.6-10.8 1.85-11.7.95-.35-.35-1.3 0-3.2 1.2C207.65 24.5 187.3 34 185.35 34c-.9 0-.95-.25-.65-3.05l.3-3.05-1.65 1c-.85.55-5.65 3.4-10.6 6.35-21.7 13-30.05 19.8-40.15 32.9-2.3 2.95-4.5 5.35-4.85 5.35-1 0-1.35-1.55-.6-2.7.4-.65.8-3.25 1-6.55l.3-5.5-1.95 3.65c-1.1 2-3.55 6.05-5.5 9.05-1.9 3-5.2 8.55-7.3 12.35-7.5 13.55-10.85 19.3-12.5 21.5-1.5 1.95-1.7 2.6-1.75 5.35-.05 3.5-.5 5.45-1.25 5.7-.45.15-1.45-6.25-1.85-11.75-.05-1.25-1.35 2.1-4.7 12.25-2.55 7.65-5 15.15-5.4 16.65-.6 2.2-3.75 16.8-3.75 17.35 0 .1-.35.15-.75.15s-.75-.2-.75-.5c0-.25-.35-.5-.75-.5-.6 0-.75-.65-.7-3.1 0-1.75.15-2.8.3-2.4.1.4.35 1.1.5 1.5s1-2.6 1.95-6.75c2.2-9.9 3.85-15.35 8.65-28.9 2.2-6.2 4.15-11.85 4.35-12.55.85-3.4 3.6-2.15 4.05 1.85.35 2.95-.25 3.8 8.15-11.4 3.65-6.6 9-15.6 11.9-20s6.55-10.35 8.1-13.2c1.5-2.9 3.05-5.3 3.4-5.45 1.1-.35 1.2 2.45.4 8.8-.45 3.5-.95 6.95-1.1 7.7-.55 2.4.5 1.55 2.75-2.35 1.25-2.05 4.25-6 6.75-8.8 3.55-4 5.65-5.8 10-8.7 6.75-4.4 19.2-11.65 28.3-16.4 3.7-1.9 7.25-3.95 7.8-4.45 1-.85 1.15-.9 1.85-.15.8.8.65 1.8-.65 4.3-.7 1.25-.05 1.25 2.15-.05 1.95-1.15 18.5-8.9 23.35-10.95 3.3-1.4 4.15-1.45 5.5-.25.8.65 2.2.4 8.25-1.55 2.85-.9 9.85-2.25 11.8-2.25.75 0 1.95.6 2.8 1.45 1.35 1.3 1.8 1.4 3.9 1.15 1.7-.15 2.45-.05 2.8.45.3.55-.15.85-1.95 1.3-1.3.35-3.1.65-3.95.65-1.3 0-1.65.2-1.65 1 0 1.2-.15 1.2 2.45.25 1.15-.4 2.2-.7 2.3-.7.15 0 .9-.1 1.65-.25.75-.2 3.35-.5 5.75-.75 6.45-.65 10.2.2 17.6 4 3.3 1.65 6.25 3.25 6.55 3.5.4.3 1.05.25 1.9-.1.7-.35 1.45-.45 1.6-.3 1.2 1.15-3.5 4.5-7.6 5.4-2.25.5-3.2.45-6.95-.45-4.65-1.1-6.45-.9-7.1.75-.2.5-1.8 3.45-3.55 6.6-5.1 9.15-6.75 13.2-6.8 17.1-.05 2.2.2 3.6.65 4.15.6.75.6.95-.05 1.6-.6.6-2.05.8-6.35.85-3.05.05-5.55.25-5.55.5 0 .2-2.35.35-5.25.35s-5.25.15-5.2.4c0 .2 1.05 1.15 2.35 2.15 1.55 1.15 2.95 2.85 4 4.85.9 1.7 2.3 3.7 3.1 4.5 1.65 1.7 5.4 3.55 7.85 3.95.9.15 1.8.5 1.95.7.45.7-2.3 3.9-5.4 6.25-6.15 4.75-13.2 6.75-20.45 5.8-2.05-.25-3.8-.4-3.9-.3s1.2 1.6 2.9 3.4c5.5 5.6 6.5 7.9 3.8 8.6-1.45.35-6.35-.9-10.9-2.8-1.95-.8-3.6-1.4-3.7-1.3-.2.2 4.25 7.05 7.9 12.1 3.65 5 3.75 5.75.7 5.6-1.25 0-2.25-.25-2.25-.5 0-.2-.35-.4-.75-.4s-.75.25-.75.5c0 .75-7.85.65-8.15-.1-.15-.35-.3-.4-.3-.15-.05.4-1.45.4-4.4.15-5.8-.55-6.75-.65-7.75-1.1-.45-.2-1.15-.15-1.5.15s-1.2 1-1.9 1.5l-1.25.95.95 1.8c.5.95 2.25 2.7 3.85 3.9 1.6 1.15 3.05 2.4 3.15 2.75.7 1.75-4.25 3.75-10.95 4.4-1.9.2-4.35.5-5.35.75-1.1.2-1.9.2-1.9-.05s-.35-.45-.75-.45-.75.25-.75.55c0 .35-.5.45-1.35.25-.7-.2-1.45-.15-1.6.05-.15.25-1.2.65-2.25.9-2.4.6-3 1.75-.95 1.75s6.2 1.35 7.4 2.4c1.5 1.25 3.25 3.9 3.25 4.8 0 1.1-1.2 1.5-2.45.85-1.7-.95-3.3.1-4.3 2.8-1.1 2.9-4 7.4-5.4 8.4-.6.4-1.55.6-2.2.45-.95-.25-1.15-.1-1.15.75 0 1-1.4 1.5-2.15.7M249.4 148.15c-.6-.15-.9-1.05-1.15-3.15-.3-2.7-.2-3.35 1.2-6.25 1.95-4.2 3.65-5.7 6.4-5.75h2.1l.3 2.2c.2 1.2.2 2.75 0 3.4-.75 2.45-2.4 5.9-2.8 5.9-.25 0-.45.4-.45.9s-.35 1.4-.8 2c-.75 1.05-2.55 1.35-4.8.75m2.55-2.1c.55-.55.85-1.1.7-1.25-.2-.15.1-.3.55-.3.65 0 .85-.3.65-1-.15-.55-.05-1 .25-1 .25 0 .3-.2.15-.5-.15-.25-.05-.5.25-.5s.4-.2.25-.5c-.15-.25-.05-.5.25-.5s.4-.2.25-.5c-.15-.25-.05-.5.25-.5.35 0 .5-.35.3-.75-.15-.4-.05-.75.25-.75s.45-.35.25-.75c-.15-.4-.05-.75.2-.75.3 0 .5-.35.5-.75 0-1.1-1.7-.9-2.9.4s-4.1 7.2-4.1 8.45c0 .9.5 2.4.8 2.4.1 0 .65-.45 1.15-.95M300.5 134.2v-3.25l2.15.15c2.05.15 2.1.2 2.55 2.45.65 3.35.25 3.95-2.45 3.95h-2.25zm2.7 1c1.4-.55.65-2.2-1-2.2-.1 0-.2.55-.2 1.25 0 1.35.05 1.4 1.2.95" id="path7"/>
    <path d="M139.5 120.95c0-1.5 1.6-2.2 3.75-1.65 1.35.35 1.75 1.7.5 1.7-.4 0-.75.3-.75.65s-.7.6-1.75.6c-1.55 0-1.75-.15-1.75-1.3M330.6 116.65c.15-1.95.75-4.05 1.95-6.4l1.7-3.5h4.5l.15 2.85c.15 2.9-.65 5.2-3 8.55-.8 1.15-1.35 1.35-3.25 1.35h-2.25zm3.6-.75c-.15-.25.1-.55.5-.7.45-.15.65-.5.5-.75s0-.45.3-.45.4-.2.25-.5c-.15-.25-.05-.5.25-.5s.45-.2.3-.45c-.2-.25-.1-1.05.2-1.75.3-.8.3-1.35-.05-1.55-.45-.3-2.95 4.5-3.7 7.15-.3 1.05-.25 1.1.65.55.6-.35.9-.85.8-1.05M269.5 75.4c0-3.2 1.05-5.15 4.85-8.75 2.4-2.4 2.9-2.65 4.9-2.65 2.95 0 4.05 1.45 3.55 4.9-.25 1.95-.75 2.8-2.95 5-3.3 3.35-4.65 4.1-7.85 4.1h-2.5zm4.45-.15c.75-.35 2.55-2 4-3.55 1.95-2.1 2.55-3.15 2.45-4.1-.1-.7-.4-1.35-.75-1.45-1.55-.5-8.75 8-7.9 9.35.4.65.55.65 2.2-.25M253 16.5c0-.8.35-1 1.75-1 2 0 2.45 1.2.65 1.7-1.9.5-2.4.35-2.4-.7" id="path8"/>
  </g>
  <g fill="#45332a" id="g11">
    <path d="M149.75 473.55c-2.5-1.5-4.15-3.85-4.55-6.35-.5-3.45.05-9.35 1.4-14.45 1-3.85 1.35-4.5 2.3-4.65.85-.15 1.1-.5 1.1-1.65 0-2.6 2.05-15.1 2.75-16.7 2.15-5 5.05-18.95 8.75-41.7 1.2-7.45 1.25-8.55.25-8.55-.9 0-1 1.05.5-9.4.65-4.85 1.7-12.35 2.25-16.6 2.25-16.95 3.05-21.3 7.5-40.5 2.6-11.15 4-22.45 3.95-31.45 0-4.3-.2-8.9-.4-10.3-.35-2.35-.4-2.45-.9-1.2-.3.7-.85 2.2-1.2 3.35s-.9 2.1-1.2 2.1c-.6 0-1.4 2.45-1.55 4.75-.05.55-.1 1.4-.15 1.85 0 .5-.45 1.25-.95 1.75s-1.2 2.15-1.55 3.65c-1.15 4.9-.9 4.6-3.3 4.4-1.9-.15-2.3 0-2.7.95-.75 1.6-3.6 1.6-4.7.05-.75-1.1-.8-1.1-1.65-.3-.9.85-.85.9.2.9.7 0 1.1.3 1.1.8 0 .65-.15.7-.7.25-.6-.5-.75-.3-1.05.95-.2.8-.55 1.5-.8 1.5s-.75.75-1.1 1.65c-.7 1.65-2.7 9.65-2.95 11.85-.15 1.05-.45 1.25-2.05 1.4-1.45.15-2.1-.1-2.9-1l-1-1.15.1 5.75c0 3.15-.25 7.15-.6 8.9-.5 2.75-.75 3.1-1.75 3.1-.6 0-1.25.2-1.4.4-.15.25-.6 5.9-1.05 12.65-1.05 16.2-2.1 28.15-2.95 33.95-.4 2.6-.95 6.45-1.25 8.5-1.2 8.2-1.65 11-2.6 16.75-.55 3.3-1.25 7.35-1.5 9-.3 1.65-.9 4.7-1.45 6.75-.5 2.05-1.05 4.65-1.25 5.75s-.65 3-1.05 4.25-1.05 3.5-1.5 5-1 3.2-1.2 3.75c-.25.55-.7 1.9-1.05 3-.6 2.15-.9 2.8-3.25 7.5l-1.55 3-2.75.15c-2.3.1-3-.05-4.2-1-.8-.65-2.05-1.5-2.8-1.85-.75-.4-1.85-1.1-2.35-1.65-.55-.5-1.2-.9-1.45-.9-.9 0-7.45-6.8-8.25-8.55-1.4-3.05-2-8.55-1.35-12.45.4-2.35.8-3.5 1.35-3.6.5-.1.85-.85.95-2 .15-1.9 1.6-6.3 4-11.9 1.65-4.05 4.3-12.9 5.65-19.1 1.75-8.1 2.6-16.7 2.9-29.9l.3-12.75 5.3-5.55c5-5.25 5.6-6.15 10.4-15 6.55-12.15 10.7-22.1 13.15-31.45l.9-3.5 2.05-.15c1.75-.15 2.05-.35 2.05-1.25s.1-.95.5-.35c.4.65.55.65.95.05.35-.55 2.35-6.4 2.85-8.4.1-.4 1.05-.65 2.45-.65 2.1 0 2.4-.15 3.3-1.75.95-1.55 1.3-1.75 3.35-1.85h3.25c.7.1.85-.15.6-.8-1.35-4.35-2.75-11.1-2.55-12.35.15-.8.05-3.2-.2-5.25s-.6-4.75-.75-6-.6-4.55-1-7.4c-1-6.75-.95-7.1.25-7.1 1.3 0 1.8 1.05 2.45 5.5.35 2.05.7 4.55.9 5.5l.3 1.75.6-1.75c.4-.95.7-1.35.7-.85.05.6.45.85 1.5.85 1.8 0 2.15-.45 3.5-4.6 1.15-3.4 1.15-3.4 3-3.4h1.85l.6 5.15c.3 2.8.95 8.3 1.45 12.25.85 6.7.95 7.1 2 7.1.6 0 1.2.2 1.35.45.15.2.5 4.9.8 10.4.9 16.35 0 25.45-4.4 45.65-1.7 7.75-3.6 19.15-5.1 30.75-.55 4.4-1.7 12.7-2.55 18.5-1.4 9.45-1.55 13.75-.55 13.75.2 0 .35 1.35.4 3s-.15 3-.4 3c-.3 0-.35.85-.15 2 .25 1.4.15 2-.25 2-.45 0-.55.7-.4 2.25.15 1.35.05 2.25-.2 2.25-.3 0-.4.65-.2 1.5.15.95.05 1.5-.25 1.5-.35 0-.45.6-.25 1.75.25 1.1.15 1.75-.2 1.75-.3 0-.4.5-.2 1.25.2.8.1 1.25-.25 1.25s-.45.45-.25 1.25.1 1.25-.3 1.25-.5.45-.3 1.25c.2.75.1 1.25-.2 1.25-.35 0-.45.4-.25 1s.1 1-.25 1-.45.4-.25 1 .1 1-.25 1-.45.4-.25 1 .1 1-.25 1c-.4 0-.5.45-.3 1.25s.1 1.25-.25 1.25-.45.45-.25 1.25c.2.75.1 1.25-.2 1.25s-.4.5-.2 1.25c.2.8.1 1.25-.3 1.25-.35 0-.45.4-.25 1s.1 1-.25 1-.45.4-.25 1 .1 1-.25 1c-.3 0-.4.5-.2 1.25.2.8.1 1.25-.3 1.25-.35 0-.45.4-.25 1s.1 1-.25 1-.45.4-.25 1 .1 1-.25 1-.45.4-.25 1 .1 1-.25 1-.45.4-.25 1 .1 1-.25 1-.45.4-.25 1c.2.55.1 1-.2 1s-.4.35-.25.75c.2.4.05.75-.3.75s-.5.35-.3.75c.15.4.05.75-.25.75s-.4.45-.2 1c.2.6.1 1-.25 1s-.5.35-.3.75c.15.4.05.75-.25.75-.25 0-.35.55-.15 1.25.2.8.1 1.25-.3 1.25-.35 0-.45.4-.25 1s.1 1-.25 1c-.4 0-.45.5-.25 1.5.2.95.15 1.5-.2 1.5s-.45.5-.25 1.25c.2.8.1 1.25-.3 1.25-.45 0-.5.55-.3 1.75.2 1.1.15 1.75-.2 1.75-.3 0-.5 1.4-.5 3.5 0 2.25.2 3.5.55 3.5s.45.55.3 1.5c-.2.95-.1 1.5.2 1.5s.45.35.25.75c-.15.4-.05.75.25.75s.45.3.3.65c-.1.3.35 1.1 1 1.7.6.6 1.15 1.25 1.15 1.4 0 .65-3.9.15-5.25-.7M414 400.9c0-2.45.65-4.9 1.3-4.9.35 0 .8.85 1 1.9l.4 1.85.6-2 .55-2 .4 2.35c.5 3.3.15 3.9-2.25 3.9-1.75 0-2-.15-2-1.1M276.25 377.8c-1.9-.6-6.4-2.4-10-3.95-3.55-1.55-7.8-3.15-9.4-3.55-1.55-.4-3.1-.9-3.35-1.05-.65-.4-.65-3-.05-6.1.25-1.3.6-3.2.75-4.15.2-1.25 1.2-2.65 3.25-4.85 5-5.3 13.25-18.2 17.75-27.7 7.4-15.75 9-19.45 11.5-26.1 1.55-4.05 3.15-8.1 3.6-8.95.45-.8.7-1.95.55-2.45-.15-.55-.05-1.1.2-1.25 1-.6.25-8.9-1.55-17.55-.55-2.55-1-4.75-1-4.9 0-.1-1.3-1.75-2.9-3.6-10-11.75-13.65-17.1-18.65-27.4-2.95-6.1-4.45-8.55-6.15-10.25-1.25-1.2-2.3-2-2.3-1.75 0 .3-.35.1-.75-.45-.35-.5-.9-.75-1.15-.6s-1.3 2.35-2.4 4.9c-1.05 2.55-2.05 4.75-2.25 4.9-.5.4-2 3.5-1.7 3.5.75 0-1.7 3.2-3.1 4.1-.9.55-1.65 1.2-1.65 1.45s-.45.45-1 .45-1 .25-1 .5c0 .3-.35.5-.75.5s-.75.3-.75.7-.75.85-1.75 1c-1.05.2-1.75.65-1.75 1.05s-.55.85-1.2 1.05c-.7.15-1.35.6-1.5 1s-.95.7-1.8.7c-1.15 0-1.5.2-1.5.95 0 .6.4 1.05 1.05 1.15 1.05.15 1 .2-.45 1.65-1.15 1.15-1.8 2.5-2.55 5.55-2.2 8.6-5.75 17.75-14.8 37.95-5.1 11.45-10.55 25.05-11.95 29.95-1.45 5-1.6 5.3-2.55 5.3-2.7 0-.25-7.45 11.65-35.5 9.85-23.25 13.5-34.3 15.65-47.6.5-3.1.8-3.9 1.5-3.9.45 0 .95-.5 1.1-1.1.8-3.15 1.4-12.95 1.25-20.3-.1-6.3 0-8.3.5-8.45.3-.15.6-.6.6-1.05 0-1.4.55-.25.8 1.7.3 2.45.7 2.85.7.65 0-2.35.5-3.95 1.2-3.95.35 0 1.9-1.6 3.5-3.55s4.8-5.5 7.1-7.9c2.3-2.45 4.05-4.5 3.95-4.65-.6-.6 12.75-10.95 21.25-16.55 6.8-4.45 16.9-9.85 18.4-9.85 1.25 0 1.3-.35.6-2.2-.45-1.2-.35-1.3.75-1.3 1 0 1.25.25 1.25 1.15 0 2.6 6.3 19.75 10.5 28.5 4.5 9.5 12.35 21.9 13.05 20.75.3-.5.6-.35 1.25.5.6.9.95 1.05 1.5.55.55-.45.7-.35.7.75 0 .95-.25 1.3-.95 1.3-.85 0-.9.15-.45 1.4.4 1.1.35 3.65-.3 10.15-1.2 11.85-1.8 31.2-1.25 39.2.45 6.15 1.75 15.15 3.05 21.2.4 1.85.85 2.75 1.5 2.95.9.2 1.35 2.6.45 2.6-.75 0-.95 2.45-.25 2.7.4.15.7-.05.7-.45s.3-.75.7-.75c.85 0 1.5 1.55.85 2-1.1.65-1.7 7.75-1.35 16.6.3 8.75.3 8.9-.8 10-8.05 8-19.65 23.55-25.4 33.9-1.45 2.6-3.2 5.5-3.95 6.4-2.85 3.65-3.55 5.25-3.55 8.35-.05 5.3.05 5.25-4.95 5.25-3.1-.05-5.3-.35-7.8-1.2M191.8 371.25c-.2-.7-.2-1.45-.1-1.7.15-.2.6-3.4 1.05-7.1s1.5-10.85 2.35-15.95 1.65-10 1.75-10.9c.3-2 1.9-2.1 1.9-.1 0 2.55-.85 19.95-1.25 26.1-.4 6.1-.5 6.4-2.1 8.6-1.85 2.55-3.15 2.9-3.6 1.05M393 364.95c0-1.35.95-2.95 1.7-2.95.15 0 .3.6.3 1.3v1.25l1.25-1.4 1.2-1.4.05 2.4v2.35h-2.25c-2.2 0-2.25-.05-2.25-1.55M91.8 359.65c-.2-.2-1.1-.45-1.95-.5-7.05-.3-20.1-2.95-26.95-5.4-2-.75-6.4-2.3-9.8-3.5-8.7-3.1-8.6-3-8.6-7.4 0-5.4 1.35-16 2.7-21.1.65-2.45 1.45-6.95 1.8-10 .7-6.55 2.35-17.75 3.05-20.4 1.25-4.85 1.9 1.9.95 10.15-.2 2.05-.65 6-.95 8.75s-1 7.7-1.5 11c-.55 3.3-1.1 8.15-1.3 10.75l-.3 4.75 3.9.05c3.95.05 13.55 1.9 19.65 3.75 5.15 1.65 13 5 14.5 6.3 1.4 1.15 2.85 1.6 2.25.7-.15-.25-.05-.6.2-.75s.6-1.15.75-2.15c1.15-6.25 12.3-39.35 13.8-40.85.95-.95 1.05.2.3 2.95-.5 1.65-.7 3.45-.5 4.45.35 2.05-2.6 15.6-5.1 23.3-1.65 5.05-5.75 13-6.7 13-.25 0-.35.35-.2.75.2.4.05.75-.25.75s-.4.35-.25.75c.2.4.1.75-.15.75s-.45.45-.45 1 .2 1 .45 1c.2 0 .25.25.1.5-.15.3-.05.5.25.5s.4.25.25.5c-.45.75 1.85 1.5 2.65.9.45-.4.6-.2.6.75 0 .7-.3 1.5-.6 1.7-.35.2-.65.85-.65 1.4 0 1-1.25 1.6-1.95.9M70.65 345.7c4.25-1.1 4.4-1.25 1.3-2.05-1.45-.35-2.8-.9-2.95-1.15s-2.05-.6-4.2-.8c-3.8-.35-3.9-.3-3.4.65.85 1.55 4.25 3.95 5.8 4.1.2.05 1.8-.3 3.45-.75M187.8 315.85c-.45-.95-.8-2.75-.8-3.95 0-1.9.4-2.75 2.65-5.75 2.4-3.25 2.7-3.5 4.1-3.25.85.15 1.65.5 1.85.8.55.8.5 4.65-.05 5.7-.3.45-.65 1.65-.8 2.65-.45 3-2.25 5.15-4.3 5.35-1.65.15-1.9 0-2.65-1.55m6.2-6.6c0-2.05-1.2-2.45-3-.9-1.4 1.15-1.5 1.4-.8 1.9.4.3 1.45.5 2.3.35 1.15-.15 1.5-.45 1.5-1.35M351.5 310.3c0-1.8-.25-6.55-.5-10.65-.3-4.05-.7-13.6-.95-21.15-.4-13.2-.35-13.85.6-15.75 1.5-2.95 8.05-12.75 9.85-14.7 1.45-1.55 1.5-1.8.95-2.9-.55-1-.3-2.95 1.5-13.05 2.6-14.45 2.5-14.1 3.25-14.1.8 0 2 2.95 1.85 4.6-.05.75.25 1.9.65 2.5.85 1.15 1.1 3.4.4 3.4-.2 0-.65-.5-1.05-1.1-.65-1-.85-.4-2.4 7.1-.9 4.55-1.85 9.4-2.1 10.75-.55 3.55-7.85 17.55-10.85 20.75l-1.15 1.25.95 7c1.95 14.4 2.7 37.1 1.3 38.55-.4.4-1.1.7-1.5.7-.65 0-.8-.65-.8-3.2M384.15 309.95c.45-.25.85-.85.85-1.2 0-.4.25-.75.5-.75.3 0 .5.2.5.45s.15.8.3 1.25c.25.65-.05.8-1.35.8-1.4-.05-1.55-.1-.8-.55" id="path9"/>
    <path d="M86.15 298.6c-.75-.45-2.15-5.4-2.15-7.5 0-3.7 2.95.55 3.4 4.9.2 2.35-.2 3.25-1.25 2.6M61.3 290.05c-.4-.65 2.8-4.75 3.85-4.95 1.15-.25 1.05.95-.15 2.3-.6.6-.85 1.1-.65 1.1.5.05-1.85 2-2.4 2-.2 0-.5-.2-.65-.45M53 285.55c0-1.85.75-2.4 1.45-1.1.65 1.15.2 2.55-.75 2.55-.45 0-.7-.55-.7-1.45M384.85 254.9c-.2-.65-.05-1.3.3-1.5 1.2-.75 1.85-.4 1.85 1.1 0 1.15-.25 1.5-.95 1.5-.55 0-1.05-.45-1.2-1.1M381 253.25c0-.5-.55-.75-1.75-.75-1.65 0-1.75-.1-1.75-1.7 0-2 1-2.6 1.85-1.1l.65 1.05.3-1.1c.35-1.3.95-1.45 1.95-.45.95.95 1.5 3.3.8 3.3-.3 0-.55.35-.55.75s-.35.75-.75.75-.75-.35-.75-.75M198.85 252.1c-1.3-1.4-1.85-3.5-1.85-6.8 0-4.2 1.6-7.4 5.1-10.05 1.4-1.1 3.3-3.05 4.25-4.3 1.95-2.7 3.25-3.35 7.4-3.55 2.95-.15 3-.1 3.15 1.25.1.75.4 1.35.65 1.35.65 0-1.15 4.5-2.9 7.05-.8 1.2-1.75 3.25-2.15 4.6-.35 1.3-.9 2.35-1.3 2.35s-1.1.85-1.65 1.9c-1.2 2.35-5.2 6.1-6.5 6.1-.55 0-1.15.25-1.3.5-.5.8-2 .6-2.9-.4m6.5-8.7c2.55-2.75 3.3-5.05 2.1-6.25-.65-.65-2.1-.3-1.65.45.15.25-.15.6-.75.75-.55.15-.9.45-.75.7s-.05.6-.5.75c-.4.15-.6.6-.45 1s.05.7-.15.7c-.35 0-.5 2.5-.25 3.4.15.45 1.05-.15 2.4-1.5M333.75 249.7c-.55-.9-.75-1.75-.5-2.65.2-.7.45-2.65.5-4.3.1-2.65.4-3.5 2.45-6.65 1.3-1.95 2.6-4.75 2.95-6.1.55-2.35.7-2.5 2.2-2.5 2.55 0 3.45 1.75 2.7 5.3-.3 1.55-.45 3-.3 3.2.15.25-.3 1.1-1 1.9-.85 1-1.25 2.1-1.25 3.3 0 1.3-.2 1.8-.8 1.8-.65 0-.75.55-.6 3.2.15 3.95-.45 4.8-3.35 4.8-1.75 0-2.3-.25-3-1.3m4-5.1c2-1.45 2.1-4.6.15-4.6-2.1 0-3.75 3.45-2.05 4.45 1.1.65 1.25.65 1.9.15M47.6 249.4c-1-1-.7-8.4.6-15.25.7-3.55 1.7-9 2.3-12.15 3.2-17.5 4.8-24 5.9-24.4 1.45-.45.25 10.2-2.9 25.15-.6 2.75-1.6 8.4-2.25 12.5-.7 4.15-1.5 8.5-1.8 9.75s-.55 2.75-.6 3.35c-.15 1.4-.55 1.75-1.25 1.05M123.5 248.25c0-.45.55-1.85 1.2-3.15s2.55-5.7 4.3-9.85c1.7-4.1 3.3-7.7 3.55-7.95 1.15-1.2.8.6-1.35 6.75-2.85 8.3-5.95 14.95-6.95 14.95-.4 0-.75-.35-.75-.75M157.5 231.7c0-.6 1.25-2.55 3.4-5.35 1.2-1.6 2.15-2.95 2.05-3.05-.1-.05-1.2-.4-2.4-.75-4.4-1.25-9.4-7.9-9.95-13.15-.35-3.85 1.4-2.9 3.65 1.85 1.8 3.8 4.5 6.55 8.25 8.4 2.7 1.35 3.3 1.85 3.4 3 .2 1.65-2.8 5.95-5.55 8.05-1.6 1.2-2.85 1.65-2.85 1M136.8 219.1c-.15-.25.25-1.2.85-2.15l1.1-1.7.15 1.4c.25 1.9-1.3 3.7-2.1 2.45M152.65 200.75c.1-.8 1.25-5.1 2.45-9.5 3.15-11.15 6.1-29.65 6.1-38l-.05-5L158 143c-6.3-10.45-7.6-12.55-9.85-15.55-1.25-1.65-3.2-3.65-4.35-4.35-1.15-.75-2.1-1.5-2.2-1.7s-.95.35-1.9 1.25c-1.4 1.3-2.15 2.9-4.2 9-1.35 4.05-3.2 9-4.05 11-3.2 7.35-9.65 21.2-11.6 24.85-1.15 2.05-2.8 5.3-3.8 7.2-.95 1.9-1.85 3.2-1.95 2.9-.25-.8-1.7-.75-2.6.05-.4.3-.05-.25.7-1.3 1-1.35 1.3-2.25 1.1-3.1-.2-.7.15-2.45.9-4.35 1.95-5.15 15.15-33.2 18.6-39.5 1.75-3.2 3.2-6.1 3.2-6.35 0-.95 3.55-4.05 4.65-4.05 6.2 0 11.9 6.55 19.6 22.65 3.15 6.65 3.65 8 3.4 9.55-.15 1.15-.05 2.35.4 3.1.55 1.05.5 2.45-.2 8.85-2.3 20.25-5.5 32.15-10.2 37.7l-1.2 1.4z" id="path10"/>
    <path d="M141.75 196.55c-3.3-4.7-5.05-6.65-6.55-7.35q-2.925-1.425-.6-1.8c1.6-.2 2.4-2.9 2.9-9.65.25-3.35.75-6.25 1.3-7.5.5-1.1 1.55-4.6 2.4-7.75l1.55-5.75 1.95-.15 1.95-.15-.3 11.4c-.15 6.25-.6 13.65-1.05 16.4-.4 2.75-1.05 6.95-1.4 9.4-.35 2.4-.75 4.35-.9 4.35s-.7-.65-1.25-1.45M56 192.15c0-1.35-.35-4.1-.8-6.15-.4-2.05-1.15-7.45-1.7-12-.5-4.55-1.05-9.05-1.2-10-.95-5.4-2-19.7-2.15-29.4-.25-12.75.25-15.75 2.8-17.55 1.8-1.3 2.65-1.3 6.25-.05 6.3 2.15 14.65 9.4 17.4 15.05.7 1.5 1.75 5.2 2.4 8.2.6 3.05 1.3 5.7 1.55 6 .25.25.45.85.45 1.35s.35.9.8.9c.75 0 .8.5.55 3.85-.2 2.7 0 5.35.65 9.1 1.2 6.4 1.3 10.55.35 10.55-1.9 0-3-3.8-4.8-16.75-.95-6.7-2.45-14.65-3.55-18.75-.6-2.25-4.05-7.05-6.75-9.45-2.5-2.2-8.4-5.95-9.95-6.35-1.85-.45-3.15 1.3-3.85 5.5-.85 4.95-.7 14.25.3 18.8.5 2.05 1.05 6.9 1.25 10.75.25 3.85.8 10.4 1.2 14.5.8 7.75 1 19.1.5 22.4-.5 2.8-1.7 2.45-1.7-.5M335 193.25c0-.7-.3-1.25-.65-1.25-1.5 0-2.35-1.75-2.35-4.9 0-5.8 2.5-10.15 8.15-13.95 4.35-2.95 6.2-3.65 6.9-2.6 1.25 1.95-.15 9.95-2.25 13.25-.4.55-.9 1.85-1.05 2.9-.2 1-.6 1.8-.85 1.8s-1.2.8-2.1 1.75c-1.4 1.45-1.5 1.75-.75 1.75.55 0 .95.25.95.55 0 .65-3.1 1.95-4.75 1.95-1 0-1.25-.25-1.25-1.25m5.45-8.55c3.4-3.05 3.85-3.95 2.8-5.5-.4-.65-1.1-1.2-1.45-1.2-1.15 0-3.25 2-2.95 2.8.15.5-.05.85-.7 1-.5.15-1 .75-1 1.35-.05.6-.5 1.35-.95 1.7-1.05.75-.55 2.15.75 2.15.5 0 2.1-1.05 3.5-2.3M191.9 188.65c-1.95-2.25-2.15-3.3-2.1-10.65 0-6.2.2-7.9 1.3-11.75 2.1-7.4 4.4-10.75 7.4-10.75 1.5 0 5.2 1.9 6.55 3.3.95 1 1 1.3.45 1.95-.95 1.15-1.1 3.25-.2 3.25.75 0 .95 1.3.25 1.7-.25.2-.6 2.25-.8 4.7-.7 8.8-3.3 16.1-6.4 18.05-2.15 1.3-5.4 1.4-6.45.2m5.35-9.95c1.55-.6 2.25-2.95 2.25-7.8 0-4.6-.7-6.9-2.05-6.9-.8 0-1.8 1.2-1.55 1.9.1.3-.15.6-.6.6-.5 0-.65.3-.5.75.2.4.05.75-.3.75s-.45.4-.25 1 .1 1-.25 1c-.3 0-.4.5-.2 1.25.15.7.1 1.25-.15 1.25s-.4 1.15-.35 2.6c.15 3.3 1.5 4.5 3.95 3.6M244.15 154.9c-.8-1.05-1.15-2.4-.65-2.4.3 0 .5-1.2.5-2.6.05-6.3 3.85-15.8 7.95-19.8 3.8-3.7 8.55-5.45 11.85-4.4 1.45.45 1.9 3.1.7 4.3-.45.45-1.7 3.15-2.75 6.05-1.05 2.85-2.3 6.15-2.8 7.35s-.7 2.1-.4 2.1c.8 0-1.45 3-4.25 5.65-3.75 3.55-4.15 3.8-6.35 3.5-1.25-.2-1.95-.1-1.95.3 0 .75-1.25.7-1.85-.05m8.7-9.25c1.3-1.85 3.55-7.15 3.95-9.1.45-2.15-.8-2.55-2.75-.9-.85.7-1.35 1.4-1.2 1.55.2.15.05.3-.3.3s-.45.25-.3.5c.15.3.05.5-.25.5s-.4.25-.25.5c.15.3.05.5-.25.5s-.4.25-.25.5c.15.3.05.5-.25.5s-.4.25-.25.5c.15.3.1.5-.2.5s-.4.35-.25.75c.2.4.1.75-.2.75-.4 0-.35 1.75.15 3.4.35 1.05 1.65.65 2.6-.75M403.1 149.9c-5-10-10-22-16.6-39.65-1.45-3.85-4.25-10.6-6.3-15.05-3.45-7.5-4.3-10.2-3.3-10.2.25 0 .8.4 1.2.9 1.65 1.8 8.65 16.7 11.75 24.85 1.8 4.7 4.65 12.2 6.4 16.75s4.35 11.1 5.9 14.6c1.8 4.2 2.65 6.8 2.45 7.65q-.375 2.325-1.5.15M300.55 141.5c-.9-.95-1.45-1.8-1.2-1.85.2-.1.35-3.4.25-7.35-.2-6.9-.15-7.15.85-7.45.75-.15 1.1.05 1.35.8.35 1.1.35 1.1.75-.05.25-.7.75-1.1 1.25-1 .9.15 2.85 4.5 2.2 4.9-.2.15-.2 1.5.05 3 1 6.9.35 9.5-2.3 9.5-.65 0-1.25.3-1.4.65-.1.35-.8-.05-1.8-1.15m3.3-6.3c.35-.9-.35-2.3-1.25-2.6-.4-.1-.6.45-.6 1.6 0 1.9 1.25 2.55 1.85 1M326.5 124c0-1.35.45-3.7 1.05-5.2.55-1.55.9-3 .7-3.25-.35-.6 3.55-8.55 4.25-8.55.25 0 .7-.85 1.05-1.9.8-2.75 5.9-10.15 7.9-11.45.95-.65 2.25-1.15 2.85-1.15 1.15 0 1.2.2 1.2 2.95 0 1.65-.25 3.05-.5 3.15-.3.1-.95 2.05-1.5 4.4-2.3 10.65-5.1 16.95-9.15 20.65-2.45 2.25-3.8 2.85-6.15 2.85h-1.7zm7.9-7.35c2.7-3.85 3.85-7.65 2.5-8.45-.65-.4-2.55 1.65-2.1 2.35.15.25.05.45-.2.45-.6 0-2.15 4-1.8 4.55.15.25 0 .45-.25.45-.3 0-.55.45-.55 1 0 1.45 1.25 1.25 2.4-.35M384.5 86.3c-2.6-.9-6.25-2.35-8.1-3.2-7.4-3.35-1.65-3.45 7.3-.1 2.1.75 3.8 1.35 3.8 1.3 0-.3-13.95-13.8-20.75-20.1-13.8-12.75-13.85-12.85-8.35-13.4 1.9-.2 3.8-.2 4.25 0 1.95.75.6-.25-2.5-1.9-1.9-1-9.25-5.3-16.4-9.6-19.5-11.75-33.1-18.1-45.55-21.3-8.35-2.15-14.25-2.7-25.7-2.3-10.4.35-13.35.65-22.75 2.25-3.3.55-6.75 1.05-7.65 1.05-1.45 0-1.65-.15-1.5-1.1.1-.65.55-1.1 1.15-1.15.55-.05 4.95-.75 9.75-1.55 8.15-1.35 9.7-1.45 23-1.45 15.45 0 21.2.65 31.75 3.55 19.1 5.25 45.65 19.25 60.3 31.8 1.55 1.3 3.2 2.4 3.65 2.4 1.2 0 .95 1.45-.3 1.75-.65.15-3.3.05-5.9-.2-2.6-.3-4.8-.4-4.95-.3-.1.15.45.75 1.25 1.35 12.7 9.95 26.25 23.05 30.35 29.25 1.3 1.95 2.35 3.8 2.35 4.1 0 1.05-3.75.55-8.5-1.15M265 83.25c0-1.25.5-3.65 1.1-5.35 1.05-3.2 4.85-10.5 6.2-11.95.4-.45.85-1.35.95-2 .3-1.55 6.65-7.35 9.9-9 2-1.05 5.25-1.1 6.75-.15 1.15.75 1.5 2.2.55 2.2-.4 0-.5.9-.35 2.75s.05 2.75-.35 2.85c-.35.1-2.6 3.1-5 6.65-4.45 6.65-8.1 10.85-12.4 14.3-2.1 1.65-2.8 1.95-4.9 1.95H265zm9.4-7.45c1.4-.75 7.1-6.3 6.45-6.3-.2 0-.15-.4.1-.9.6-1.1-.55-3.1-1.7-3.1-.95 0-5.85 4.8-7.2 7-2.05 3.45-.95 5 2.35 3.3" id="path11"/>
  </g>
  <g fill="#2a1e1a" id="g15">
    <path d="M149.45 476.65c-3.35-1.75-5.65-4.7-6.5-8.4-.5-2.3-.5-3.4.25-7.05.95-4.85 3.45-11.8 4.6-12.75 1.6-1.35 1.75.3.5 5.2-2.45 9.5-2.35 13.2.5 16.35 3.8 4.2 8.7 4.5 17 1 8.5-3.6 14.7-6 15.5-6 2.7 0-5.1 5.55-13 9.25-8.95 4.2-14 4.8-18.85 2.4M183.35 464.9c-.7-.35-.7-.7-.1-2.7.35-1.25.9-2.5 1.15-2.85.95-1.25 2.65-7.1 3.35-11.55.8-5.5 1.15-12.2 1.75-36.8.5-18.75 1.65-36.55 2.5-39.1.7-2.1 3-4.9 4.05-4.9 1.1 0 1.2 1.1.45 8.5-.25 2.6-.65 9.6-.95 15.5-1.8 35.95-2.15 42.3-2.6 47.25-.65 7.4-1.7 12.95-3.5 18.4-2.5 7.4-4 9.45-6.1 8.25M113.65 448.15c-.35-.1-.65-.55-.65-.9 0-.4-.5-.75-1.1-.85-.85-.1-1.2-.55-1.3-1.5-.15-1.15 0-1.35.75-1.05.5.15 1.55.85 2.35 1.55 1.05.8 1.9 1.1 2.9 1 1.2-.2 1.4-.05 1.4.95s-.25 1.15-1.85 1.1c-1.05 0-2.2-.15-2.5-.3M150 445.7c0-.9.7-5.6 1.25-8.2.15-.7.5-2.7.75-4.5.3-1.8 1.4-7.95 2.5-13.75 1.75-9.35 3.1-17.6 5.75-35.25.45-2.9.9-5.5 1-5.8.3-.9 2.7-.2 3 .85.6 1.8-5.75 38.05-7.75 44.65-.55 1.7-1.45 5.35-2 8.05-.9 4.45-3.75 14.15-4.3 14.7-.1.1-.2-.2-.2-.75M106 442c0-.8-.35-1-1.5-1-1.65 0-2.2-.75-1.9-2.5.15-1 .25-.95 2.25.7 1.1 1 2.2 1.8 2.4 1.8.15 0 .75.45 1.35 1l1.1 1h-1.85c-1.5 0-1.85-.2-1.85-1M120.4 440.65c-.15-.8 1.15-2.65 1.85-2.65.15 0 .25.8.25 1.75 0 1.4-.2 1.75-.95 1.75-.55 0-1.05-.4-1.15-.85M98 435.25c0-.4-.2-.75-.5-.75-.25 0-.5-.8-.5-1.75 0-1.85 1.15-2.5 1.65-.85.15.45.75 1.6 1.35 2.5l1.1 1.6h-1.55c-1.05 0-1.55-.25-1.55-.75M122.85 434.05c-.15-.6.05-1.1.5-1.25.4-.2.65-.8.55-1.4-.15-1.1.9-2.9 1.7-2.9.25 0 .4.8.4 1.75s-.2 1.75-.5 1.75c-.25 0-.5.7-.5 1.5 0 1.15-.25 1.5-.95 1.5-.5 0-1.05-.45-1.2-.95M95 424.75c0-2.05.1-2.25 1.2-2.25s1.2.2 1.2 2.25c-.05 2-.2 2.25-1.25 2.25s-1.15-.2-1.15-2.25M125.4 426.15c-.15-.9.95-2.65 1.7-2.65.25 0 .4.8.4 1.75 0 1.4-.2 1.75-.95 1.75-.55 0-1.05-.4-1.15-.85M127.35 418c-.15-.55-.05-1 .25-1s.4-.45.25-1-.05-1 .25-1 .4-.45.25-1-.05-1 .2-1 .45-.35.45-.75.35-.75.75-.75c.9 0 .95 1.5.15 4.95-.6 2.7-2 3.55-2.55 1.55M414 409.35c0-1.1-1.4-12.05-1.75-13.6-1.35-5.95-7.05-19.2-11.1-25.65l-2.35-3.8-.6 4.75c-.6 4.8-1.75 8.45-2.6 8.45-.75 0-2.45-5.85-3.9-13.25-.7-3.55-2.25-11.2-3.5-17-2.9-13.75-3.4-17.55-4.35-32.9l-.1-1.85-3.85 3.45c-4.25 3.8-5.65 4.55-6.75 3.45-.6-.65-.5-1.2.6-4.35 3.8-10.5 6.75-24.15 7.95-37.05 1.45-14.85 1.85-18.2 2.65-21.75.85-3.9 1.45-5.25 2.2-5.25.85 0 .2 24.95-.8 31.75-1.05 7.35-3.75 18-6 23.8-1 2.55-1.95 5.25-2.1 5.95-.25 1.15-.1 1.1 1.9-.8 3.35-3.15 5.95-4.9 6.45-4.4.2.25.9 4.95 1.5 10.45 1.3 11.85 1.5 13.1 4.05 23.4 2.1 8.7 3.65 18.15 3.35 20.4-.15 1 0 1.45.45 1.45.35 0 .65-.4.65-.95 0-.5.35-1.2.75-1.55 1.35-1.15 3.1.25 6.1 4.8 6.95 10.75 13.45 26.05 13.05 30.95-.15 2.05.35 3.1.8 1.65.15-.35 2.05-6.25 4.25-13.15 8.65-26.75 8.75-27.35 8.8-60.75.05-25.35.1-26.5 1.2-32.75 2.05-11.05 1.6-15.95-2.45-28.5-2.1-6.5-2.75-9.8-3.25-16-.3-3.5-.25-3.9.35-3.25.4.4 1.15 2.35 1.65 4.25.5 1.95 2.2 6.95 3.85 11.2 5.75 14.85 6.4 20.35 4.1 33.3l-1.45 8 .1 24c.1 19.5 0 25.1-.65 29.75-2.1 15.35-7.7 32.2-15.45 46.5-.95 1.8-1.75 3.85-1.75 4.6 0 .7-.15 1.65-.3 2.1-.35.95-1.7 1.05-1.7.15M129.85 406c-.15-.55-.05-1 .2-1s.45-.35.45-.75.35-.75.75-.75c.5 0 .75.55.75 1.75 0 1.4-.2 1.75-.95 1.75-.5 0-1.05-.45-1.2-1M102.5 402.75c0-.95.25-1.75.5-1.75.3 0 .5-.65.5-1.5 0-1.35.15-1.5 1.55-1.5.8 0 1.4.15 1.3.4-.1.2-.6 1.65-1.1 3.25-.65 2.15-1.1 2.85-1.8 2.85-.75 0-.95-.4-.95-1.75M130.85 400.5c-.15-.55-.05-1 .25-1s.4-.65.3-1.5c-.15-.8-.05-1.5.2-1.5.2 0 .4-.35.4-.75s.35-.75.75-.75c.85 0 .9.75.45 4.2-.25 1.75-.55 2.3-1.2 2.3-.5 0-1-.45-1.15-1M308.3 400.15c-.2-.25-1.65-.4-3.2-.45-1.7 0-3.55-.35-4.55-.9-4.25-2.25-9-9.1-10.85-15.65-.8-2.95-.9-3.05-1.9-2.4-.6.35-1.55.8-2.15 1-1 .25-1.15.15-1.15-.95 0-.75.35-1.3.9-1.45.45-.15.1-.25-.75-.3-1.05-.05-1.65-.3-1.65-.75 0-.8 2.05-1.45 3.15-1 .95.35 1.35-1.15 1.35-5.05 0-3.1.7-4.7 3.55-8.35.75-.9 2.5-3.8 3.95-6.4 5.75-10.35 17.35-25.9 25.4-33.9 1.1-1.1 1.15-1.4.85-5.5-.2-2.4-.4-4.6-.5-4.85-.05-.3.05-3.5.3-7.15.5-7.35 1.4-10.35 2.8-9 1.05 1.05 1.5 16.15.7 21.9-.75 5.05-1.35 6.2-8.55 16-5.65 7.7-17.7 24.4-21.6 29.9l-2.35 3.35.45 4c.95 7.45 4.1 15.35 7.65 19.15 1.4 1.5 7.1 5.6 7.8 5.6 1.2 0 11.95-13.4 18.6-23.25 7.8-11.5 12.8-20.15 21.15-36.55l4.85-9.55-.5-6.7c-.7-8.65-.7-8.6.4-9.85 1.85-2.2 2.05-1.5 2.05 7.1v8.15l-2.05 5.45c-1.1 3-2.55 6.55-3.2 7.95-.65 1.35-1.85 4-2.65 5.85-3.6 8-13.55 24.75-23.15 38.9-8.25 12.15-13.35 17.45-15.15 15.65M105 394.75c0-1.6.15-1.75 1.45-1.75 1.45 0 1.45.05.9 1.75-.35 1.15-.8 1.75-1.45 1.75-.7 0-.9-.4-.9-1.75M132.5 391.4c0-1.5.65-2.9 1.3-2.9.45 0 .7.6.7 1.75 0 1.4-.2 1.75-1 1.75-.55 0-1-.3-1-.6M107.5 385.4c0-.65.15-2 .3-3 .3-1.6.55-1.9 1.5-1.9 1.35 0 1.4.1.65 3.5-.4 1.95-.75 2.5-1.5 2.5-.65 0-.95-.35-.95-1.1M133.35 384c-.15-.55-.05-1 .25-1s.4-.75.3-1.75c-.1-.95 0-1.75.25-1.75s.35-.55.25-1.25c-.15-.7-.05-1.25.15-1.25.25 0 .45-.35.45-.75s.35-.75.75-.75c.9 0 .9.65.15 5.6-.5 3.05-.8 3.9-1.45 3.9-.45 0-.95-.45-1.1-1M276.9 377.85c-1.05-.3-1.9-.7-1.9-.95 0-.2-.45-.4-1.05-.4-1.2 0-14.1-5.45-14.35-6.1-.1-.2-.7-.4-1.35-.4-.6 0-1.85-.15-2.7-.3-1.4-.3-1.55-.5-1.5-2.15 0-1.6.05-1.7.5-.65.25.65.65 1 .95.85.25-.15.5-.05.5.25s.4.5.9.45c.45-.05 1.5.15 2.25.5.8.3 1.65.45 1.9.25.25-.15.45 0 .45.3s.2.45.45.25c.25-.15.6-.05.8.25s.55.4.8.25c.25-.2.45-.05.45.25s.2.45.45.25c.25-.15.6-.05.8.25s.55.4.8.25c.25-.2.45-.05.45.25s.25.4.5.25c.3-.15.5-.05.5.25s.25.4.5.25c.3-.15.5-.05.5.25s.2.45.45.25c.25-.15.6-.05.8.25s.55.4.8.25c.25-.2.45-.05.45.25s.25.4.5.25c.3-.15.5-.05.5.3s.15.45.35.3c.15-.2.6-.1 1 .2.35.3.65.4.65.15s.2-.15.4.15c.2.35.85.7 1.35.8.55.05 1.3.3 1.65.5.3.25.85.25 1.1.1.3-.15.5-.05.5.25 0 .35.4.45 1 .25.55-.2 1-.1 1 .2s.35.55.75.55.75.25.75.5c0 .65-3.15.55-5.6-.15M109 375.25c0-1.55.15-1.75 1.25-1.75 1.3 0 1.45.45.95 2.4-.2.65-.7 1.1-1.25 1.1-.75 0-.95-.35-.95-1.75M134.85 374c-.15-.55-.05-1 .2-1s.45-.35.45-.75.35-.75.75-.75c.5 0 .75.55.75 1.75 0 1.4-.2 1.75-.95 1.75-.5 0-1.05-.45-1.2-1M109.5 370.75c0-1.55.15-1.75 1.25-1.75 1.3 0 1.45.45.95 2.4-.2.65-.7 1.1-1.25 1.1-.75 0-.95-.35-.95-1.75M253 363.9c0-2.2 1.35-5.65 2.25-5.8.9-.2.85.65-.05 5.55-.35 1.75-2.2 1.95-2.2.25M110 362.25c0-1.55.15-1.75 1.25-1.75 1.3 0 1.45.45.95 2.4-.2.65-.7 1.1-1.25 1.1-.75 0-.95-.35-.95-1.75M136.35 360.9c-.2-.65-.1-1.2.15-1.3.3-.1.5-.5.5-.9s.35-.7.8-.7c.6 0 .7.45.6 1.85-.2 2.2-1.6 2.9-2.05 1.05M78 359.45c-7-.8-20.25-5.3-27.7-9.35-7.2-3.9-3.4-4.25 6.55-.55 12.35 4.55 17.9 6.05 26.9 7.15 3.05.4 5.75.75 6 .85.85.3 3.05-1.5 12.7-10.55 5.15-4.8 11.55-10.75 14.25-13.25 4.75-4.35 5-4.7 8.3-11.25 3.7-7.35 9.6-20.35 11.65-25.5 3.9-9.95 4.85-12.55 4.85-13.2 0-1.8 3.15-1.2 3.75.7.4 1.25 1.2 1.3 1.55.15.15-.5.6-1.7.95-2.65.4-.95.95-2.7 1.25-3.9.55-2.15.55-2.15 2.65-2 1.95.1 2.15 0 3.55-2.05l1.45-2.15 2.9.2c3.3.25 3.35.2 2.2-3.1-.4-1.2-.9-2.85-1.05-3.7-.1-.85-.35-1.95-.5-2.4-.6-1.95-.75-3.45-1.1-9-.4-6.65-.05-8.9 1.35-8.9.55 0 1.05.3 1.2.65.1.3.35-.05.55-.9.2-.8.75-2.05 1.25-2.75.85-1.05 1.1-1.15 2.25-.6 1.2.55 1.3.45 1.6-.8.5-2.2 3.9-9.1 4.4-8.95.25.1.9.7 1.4 1.4.85 1.15 1.5 4.7 4.15 22.2.45 2.75.9 5.5 1 6.15.15.6.05 1.1-.25 1.1-1.05 0-2.95 2.8-3.25 4.75-.6 4-.85 4.75-1.45 4.75-.35 0-.85-.75-1.15-1.7-.45-1.4-.4-1.8.2-2 .45-.2.65-.7.5-1.3-.15-.55-.1-1 .1-1s.4-.3.4-.6c.05-.35.2-1.65.4-2.9.2-1.4-.05-5.05-.7-9.75-.55-4.1-1.2-9.15-1.35-11.1-.2-2-.5-3.65-.75-3.65-.2 0-.85 1.5-1.5 3.4-1.4 4.25-1.65 4.6-3.95 4.6-1.55 0-2.2.3-3.25 1.6-1.3 1.55-1.35 1.7-1 6.35.35 5.7.5 6.7 1.85 13.65.55 2.95.9 5.75.7 6.2-.25.7-.8.8-3.2.5-2.75-.3-2.9-.25-4.55 1.45-1.7 1.75-2.15 1.95-4.65 1.75-1.1-.05-1.4.2-1.65 1.35-.65 2.85-2.45 7.95-3.2 8.8-.5.6-1.3.85-2.45.75l-1.7-.15-.9 3.5c-2.5 9.5-6.6 19.3-13.15 31.45-4.8 8.9-5.4 9.75-10.45 15.05-3 3.1-5.4 6.05-5.4 6.55 0 .55-.45 1.25-1 1.6s-1 1.15-1 1.8c0 .8-.35 1.3-1.05 1.45-.85.25-1 .1-.8-.7.4-1.4-.45-1.15-3.05.95-12.1 9.85-12.55 10.15-13.6 9.6-.65-.35-1.65-.35-3.1 0-2.5.55-5.65.55-10.9-.05M136.8 355.4c-.15-.65-.05-1.2.2-1.3.3-.1.5-.5.5-.9s.35-.7.75-.7c.55 0 .75.55.75 2 0 1.65-.2 2-.95 2-.55 0-1.05-.45-1.25-1.1M258.5 353.25c0-1.4.2-1.75 1-1.75.75 0 1-.35 1-1.25 0-1.1.2-1.25 1.75-1.25.95 0 1.75.15 1.75.3 0 .65-4.3 5.7-4.85 5.7-.4 0-.65-.65-.65-1.75M137.5 348.4c0-1.5.65-2.9 1.3-2.9.45 0 .7.6.7 1.75 0 1.4-.2 1.75-1 1.75-.55 0-1-.3-1-.6" id="path12"/>
    <path d="M61.6 345.6c-1.15-1.1-2.1-2.2-2.1-2.5 0-1.1 2.35-.6 3.3.65.5.7 1.2 1.25 1.55 1.25s.65.55.65 1.25c0 1.75-1 1.55-3.4-.65M70 346.25c0-1.1.2-1.25 1.85-1.25 1.6 0 1.75-.1 1.15-.7-.9-.85-6.45-2.75-9.35-3.15-2.4-.3-2.6-.6-1.15-1.5.65-.45 1.05-.45 1.25-.1.2.3.85.45 1.4.4.6 0 1.2 0 1.35.05s1 .15 1.95.25c.9.1 1.85.4 2.05.75s.65.45.95.3c.3-.2.55-.15.55.15s.35.4.75.25c.4-.2.75-.05.75.25s.3.4.7.25c.95-.35 3.55 1.95 3.2 2.9-.25.65-5.2 2.4-6.8 2.4-.35 0-.6-.55-.6-1.25M265.5 344.3c0-1.7.1-1.8 1.55-1.8h1.55l-1.05 1.6c-1.4 2.25-2.05 2.3-2.05.2" id="path13"/>
    <path d="M267.5 340.25c0-1.2.25-1.75.75-1.75.45 0 .75-.45.75-1.25 0-.9.25-1.25 1-1.25.8 0 1-.35 1-1.75 0-1.65.1-1.75 1.8-1.75h1.8l-1 1.65c-.5.85-1.8 3-2.8 4.75-2.15 3.55-3.3 4-3.3 1.35M58 340.5c-.55-1.05-.4-1.15 1.4-.7.6.2 1.1.65 1.1 1 0 1.05-1.9.85-2.5-.3M138.85 327.5c-.15-.55-.05-1 .25-1 .25 0 .3-.2.15-.5-.2-.3.3-.35 1.3-.15 1.5.3 1.6.25 1.35-1-.15-.75-.05-1.35.15-1.35.25 0 .45-.35.45-.75s.35-.75.75-.75c.5 0 .75.55.75 1.75 0 .95-.2 1.75-.5 1.75-.25 0-.5.55-.5 1.2 0 .9-.35 1.25-1.55 1.5-2.25.45-2.3.4-2.6-.7M276.5 323.25c0-.95.25-1.75.5-1.75.3 0 .5-.55.5-1.25 0-1.05.25-1.25 1.55-1.25.85 0 1.45.2 1.35.4-.05.2-.6 1.55-1.1 3-.7 1.8-1.25 2.6-1.9 2.6-.7 0-.9-.4-.9-1.75M142.35 320.5c-.15-.55-.05-1 .2-1s.45-.35.45-.75.35-.75.75-.75c.5 0 .75.55.75 1.75 0 1.4-.2 1.75-.95 1.75-.5 0-1.05-.45-1.2-1M189.2 317.6c-1.1-.7-2.2-3.6-2.2-5.75 0-1.95 1.4-4.8 2.9-5.8.7-.5 3.95-5.7 4.35-6.9.15-.65.7-1.15 1.25-1.15.95 0 1.65 1.55 2.25 5 .65 3.75-2 10.8-5.1 13.5-1.7 1.55-2.45 1.75-3.45 1.1m3.25-4.55c1.5-3.1 2.3-6.9 1.65-7.9-.45-.7-2.85 1.05-2.4 1.75.3.55-1 1.8-2.4 2.3-.8.25-.85.65-.55 3.2.2 1.55.45 3 .6 3.25.6 1.05 1.8.05 3.1-2.6M281 314.75c0-1.55.15-1.75 1.25-1.75 1.45 0 1.5.1.5 2-1.05 2-1.75 1.9-1.75-.25M282.5 310.25c0-1.6.1-1.75 1.55-1.75 1.3 0 1.5.15 1.2.9-.2.45-.5 1.25-.6 1.75-.15.45-.7.85-1.2.85-.75 0-.95-.35-.95-1.75M142.85 309.5c-.15-.55-.05-1 .25-1 .25 0 .3-.25.1-.55-.45-.75 1.85-.35 2.9.5.8.65.75.75-.45 1.4-1.75.9-2.5.8-2.8-.35M148.85 307.5c-.15-.55-.05-1 .2-1s.45-.35.45-.75.35-.75.75-.75c.5 0 .75.55.75 1.75 0 1.4-.2 1.75-.95 1.75-.5 0-1.05-.45-1.2-1M285.5 302.75c0-1.6.15-1.75 1.45-1.75 1.45 0 1.45.05.9 1.75-.35 1.15-.8 1.75-1.45 1.75-.7 0-.9-.4-.9-1.75M150.9 299.65c-.15-.9.95-2.65 1.7-2.65.25 0 .4.8.4 1.75 0 1.4-.2 1.75-.95 1.75-.55 0-1.05-.4-1.15-.85M320.55 294.35c-1.45-.7-1.7-1.45-3.3-10.85-2.55-15.15-2.75-33.65-.45-55.65.8-7.8 1-6.95-3.35-13.15-4.35-6.25-8.45-13.2-11.45-19.45-2.95-6.25-7.75-18.6-9.45-24.5-.65-2.2-1.9-6.35-2.8-9.25-1.95-6.1-3.6-11.95-5.65-20-2.05-7.9-2.25-9.15-1.45-8.9.3.15 1.5 2.8 2.55 5.95s3.85 11.35 6.15 18.2c6.05 17.8 9.55 26.55 15.6 38.5 6.7 13.25 11.05 20.7 12.1 20.75 1.2 0 1.4 2.3.9 10.75-1.65 27.6-1.5 37 .8 52.5 2.25 14.95 2.25 16.35-.2 15.1M153.4 292.65c-.1-.55.5-1.45 1.6-2.3l1.75-1.45 1.5 1.7 1.45 1.65-1.45.15c-.8.1-1.55-.05-1.65-.35-.3-.95-1.1-.6-1.1.45 0 1.25-1.85 1.35-2.1.15M290 292.1c0-.2.3-.85.7-1.4.5-.65.55-1.25.25-1.75-.75-1.25-.5-2.45.5-2.45 1.5 0 1.7.8 1 3.5-.45 1.85-.9 2.5-1.55 2.5-.5 0-.9-.15-.9-.4M106.45 290.85c-1.2-.3-2.15-1.05-2.75-2.05l-.9-1.5-.7 1.7c-.65 1.55-.75 1.6-1.1.75-.25-.75.4-5.6 1.15-8 .1-.25.35-1.25.55-2.1.2-.9.65-1.65 1-1.65s1.05-.45 1.55-1 1.45-1 2.1-1c.9 0 1.15-.25 1.15-1.35 0-1.5 1.5-5.15 2.1-5.15.2 0 .4-.35.4-.75s.25-.75.5-.75c.3 0 .5-.25.5-.6 0-.3.35-.9.75-1.35.45-.45 1.95-2.55 3.35-4.65 2.35-3.55 2.7-3.9 4.2-3.9s1.7.2 2.3 2.15c1.25 4.2.65 16.9-1 20.9-.5 1.1-8.8 8.45-9.6 8.45-.25 0-.85.55-1.4 1.25-1.05 1.35-1.4 1.4-4.15.6m6.45-13.45c-.2-3.25-1.45-4.3-2.95-2.45-2.05 2.5-.35 6.85 2.15 5.5.8-.4.9-1 .8-3.05m6.1-10.65c0-.4-.35-.75-.75-.75s-.75.35-.75.75.35.75.75.75.75-.35.75-.75M166.15 289c-.25-1.1-.3-2-.1-2 .25 0 .45-.35.45-.75s.35-.75.75-.75.75.45.75 1 .2 1 .45 1 .2.75-.1 1.75c-.7 2.3-1.5 2.2-2.2-.25M166.9 284.15c-.15-.9.95-2.65 1.7-2.65.25 0 .4.8.4 1.75 0 1.4-.2 1.75-.95 1.75-.55 0-1.05-.4-1.15-.85M290.5 279.25c0-1.4.2-1.75 1-1.75.55 0 1 .3 1 .65 0 .3.15 1.1.3 1.75.25.95.1 1.1-1 1.1-1.15 0-1.3-.2-1.3-1.75M55.05 278.9c-.25-.9-1-3.55-1.55-5.9-.6-2.35-1.75-5.8-2.6-7.7-1.95-4.5-4-11.55-3.8-13.25s1.9-1.75 2.7-.05c2 4.1 5.3 11.85 6.2 14.45 1.8 5.35 1.95 14.05.25 14.05-.35 0-.9-.75-1.2-1.6M169.9 275.15c-.15-.8 1.15-2.65 1.85-2.65.15 0 .25.8.25 1.75 0 1.4-.2 1.75-.95 1.75-.55 0-1.05-.4-1.15-.85M289.5 271.75c0-1.4.2-1.75 1-1.75.55 0 1 .3 1 .65 0 .3.15 1.1.3 1.75.25.95.1 1.1-1 1.1-1.15 0-1.3-.2-1.3-1.75M288.35 266.15c-.7-.65-.35-3.15.4-3.15.7 0 1.75 1.85 1.75 3.05 0 .5-1.65.6-2.15.1M284.85 261.15c-.2-.15-.35-.95-.35-1.75 0-1.15-.2-1.4-1.25-1.4s-1.25-.25-1.25-1.5-.2-1.5-1.25-1.5c-1.1 0-1.25-.2-1.25-1.75 0-.95.1-1.75.2-1.75.2 0 6.45 7.35 7.7 9.1.6.8.5.9-.8.9-.8 0-1.6-.15-1.75-.35M378.25 255.5c-1.8-2.8-4.35-9.35-6.75-17.15-1.15-3.65-2.5-8.15-3.1-10-.55-1.85-.9-3.55-.7-3.75.75-.7 2.25 2.25 5.8 11.35 2 5.1 4.2 10.4 4.85 11.7s1.05 2.6.9 2.85c-.15.3.05.35.45.2.55-.2.8-1 .8-2.65 0-5.65 3.05-27.3 4-28.25 1.35-1.35 1.2 4.55-.55 21.7-1.3 12.8-1.9 15.7-3.3 15.9-.8.1-1.45-.35-2.4-1.9M199.35 252.45c-1.5-.85-2.35-3.65-2.3-7.3.05-3.85.25-3.7.7.45.2 1.65.75 3.35 1.3 4.1.85 1.05 1.15 1.15 2.55.75 2.55-.7 5.55-4.1 8.2-9.25 5-9.65 5.65-10.95 5.65-11.65.05-1.1-6-.35-6.95.9-.4.5-1.4 1.75-2.15 2.75s-2.3 2.25-3.35 2.8c-2.25 1.15-3.9 2.75-4.55 4.45-.25.65-.6 1.05-.75.9-.35-.35 2.15-4.85 2.7-4.85.2 0 1.15-.7 2.1-1.5s1.85-1.5 2.05-1.5c.15 0 .9-1.05 1.7-2.3 1.7-2.65 3.2-3.4 7.85-3.9 3.25-.3 3.4-.3 3.7.9.4 1.6-.85 5-3.2 8.85-1.1 1.75-2.15 4-2.35 4.95-.7 3.4-3.5 7.7-6.3 9.8-1.75 1.3-4.95 1.6-6.6.65M334.05 250.05c-1.15-1.6-1.3-2.85-.55-4.05.4-.6.5-.5.5.5 0 .75.55 1.6 1.3 2.15 1.2.9 1.35.9 2.2.1.65-.6 1-1.95 1.3-5.15.25-2.4.4-4.75.4-5.2 0-.5.3-.9.7-.9s.6-.3.45-.7.1-.8.65-.95c.5-.15.95-.65.95-1.15 0-.55.2-1.8.45-2.85.45-1.6.35-1.95-.45-2.4-.8-.4-.95-.3-.95.55 0 .55-.2 1-.5 1-.75 0-1.5-1.75-1.5-3.45 0-1.45.15-1.55 1.75-1.55 1.5 0 1.85.25 2.65 1.9 1.45 2.85 1.75 5.85.8 7.9-.45.9-.95 1.7-1.15 1.7-.9 0-1.7 2.6-1.85 5.75-.1 1.95-.4 4.15-.65 4.9-1.35 3.5-4.7 4.45-6.5 1.9M231.65 250.6c-.35-.2-.75-1.4-.95-2.6-.15-1.25-.65-2.75-1.05-3.4-.4-.7-.6-1.75-.45-2.5.2-.75.9-6.4 1.6-12.6s1.35-11.9 1.45-12.75c.1-.8.2-2.15.25-3 0-1.75.75-3.15 1.35-2.6.85.9 0 24.6-1.15 31.9-.3 1.85-.15 2.1 1.2 1.9.2-.05.3-.25.25-.45s.55-.5 1.35-.7c.85-.15 1.5-.6 1.5-1 0-.45.7-.9 1.75-1.1 1-.15 1.75-.6 1.75-1s.35-.7.75-.7.75-.2.75-.5c0-.25.35-.5.7-.5.4 0 1.4-.6 2.15-1.3l1.4-1.3.15 1.35c.15 1.1-.25 1.75-1.7 3.1-1.05.9-2.2 1.65-2.55 1.65-.4 0-1.15.45-1.75 1s-1.6 1-2.25 1-1.15.3-1.15.75c0 .4-.8 1.05-1.75 1.5-1.65.8-2.45 2-2.15 3.25.2.75-.65 1.1-1.45.6M273.5 245.25c0-2.2.45-2.2 1.9 0l1.1 1.75H275c-1.4 0-1.5-.15-1.5-1.75M270.5 240.75c0-1.35-.2-1.75-.9-1.75-1.1 0-2.6-2.9-2.6-5 0-2.7 1.2-1.6 3.85 3.5l2.55 5h-1.45c-1.3 0-1.45-.15-1.45-1.75" id="path14"/>
    <path d="M333.8 241.55c-.45-.75 2.3-7.55 3.05-7.55.35 0 .65.35.65.75s.25.75.5.75c.3 0 .5-.2.5-.5 0-.25.25-.5.55-.5.7 0-1.45 3.75-3.35 5.85-.9 1-1.75 1.5-1.9 1.2M423.3 238.4c-.35-1.6-1.6-10.95-2.55-18.9-3.1-26.3-7.4-44.65-14.7-62.75-3.25-8-3.6-9.45-2.15-9.15.55.1 1.9 2.6 4.15 7.9 7.55 17.8 11.95 34.25 14.2 53.25 1.85 15.8 2.75 30.75 1.8 30.75-.3 0-.65-.5-.75-1.1M365.9 221.3c-.45-1.1-.2-3.6 1.55-14.45 1.15-7.2 2.45-15.25 2.85-17.85 2-13.5 3.7-23.2 4.15-23.65.9-.9 1 .6.5 8.2-.7 11.35-2.7 26.25-5.85 43.7-.7 3.85-1.1 5.05-1.75 5.15-.5.1-1.05-.35-1.45-1.1M235.25 212.15c1.55-8.5 30.9-33.25 50.75-42.85l2.75-1.35-1.5 1.3c-.8.7-2.75 2-4.25 2.85-3.05 1.8-19.1 13.65-23.75 17.6-5.2 4.35-11.2 10.35-15.85 15.8-2.45 2.9-5.1 6-5.85 6.9-1.95 2.2-2.75 2.1-2.3-.25M142.1 196.8c-.4-.95-.35-2.3.4-5.9.5-2.55 1.25-7.8 1.7-11.7.9-7.75 1.1-21.7.35-20.9-.25.25-1.05 2.75-1.75 5.5-.7 2.8-1.75 6.2-2.35 7.5-.7 1.6-1.1 3.65-1.15 5.85-.05 1.95-.35 3.6-.7 3.8-.55.3-2.1 4.15-2.1 5.1 0 .25.35.45.8.45.55 0 .7.25.45.9-.2.45-.45 1.2-.6 1.7-.2.75-.4.75-2.3-.15-1.15-.5-3.05-.95-4.2-.95-2.95 0-3.45-1.05-2.4-5.15 1.4-5.55 5.1-14.35 11.65-27.35 5.05-10.1 6.55-12.8 7.4-12.9.6-.1 1.2.15 1.3.5.15.35.1 8.65-.1 18.4-.4 17.2-.9 23-2.55 29.25-.85 3.2-2.5 7.25-2.9 7.25-.2 0-.65-.55-.95-1.2M333.35 193.45c-4.45-3.35-3.7-10.1 1.75-16 4.5-4.85 12.4-9.15 12.4-6.7 0 .4.5 1.15 1.05 1.7.9.85 1.05 1.4.85 3.4-.3 3-2.9 9.65-3.75 9.65-.75 0-2.65 1.75-2.65 2.45 0 .25.35.55.8.65.65.1.3.7-1.4 2.65-1.95 2.1-2.5 2.45-4.05 2.4-1.05-.05-1.85.15-1.85.4 0 .8-1.7.45-3.15-.6m5.95-4.7c.9-.95 1.9-1.75 2.2-1.75.35 0 .5-.4.35-1-.15-.55 0-1 .3-1s.35-.15.2-.35c-.2-.15.1-1.05.65-1.95 1.35-2.15 3-7 3-8.8 0-3.1-3.2-1.85-7.45 2.95-4.3 4.8-6.2 10.55-4.3 12.65 1.35 1.5 3.15 1.25 5.05-.75M192.5 190.35c-3.45-1.75-4.95-7.1-4.05-14.45 1.05-8.75 3.45-15.35 6.65-18.4 1.95-1.9 3.35-2.25 5.55-1.55 2.35.8 5.65 3.7 5.1 4.5-.2.4-.5.45-.7.2-.15-.25-1.8-1.25-3.65-2.15-3.95-1.9-4.2-1.8-6.25 2.2-2.45 4.85-3.8 10.95-3.85 17.3-.05 4.9.1 6 .95 7.45 1.55 2.6 2.3 2.9 4.45 1.6 3.25-2 5.75-9 6.65-18.55.4-4.15.45-4.25 1.8-4.4l1.35-.15v3.9c-.05 4.75-1 10.4-2.5 14.4-1.25 3.3-4.45 6.85-7.3 8.05-2.05.85-2.6.85-4.2.05M372.05 159.9c-2.15-6.8-3.65-15.9-2.65-15.9 1.15 0 5.6 15 4.95 16.7-.5 1.35-1.75.9-2.3-.8M243.5 153.25c-1-2.05-1.05-2.55-.55-5.6 1.8-11.35 10.8-22.15 18.4-22.15 3.25 0 4.5.8 1.85 1.25-3.75.55-5.55 1.25-7.5 2.8-2.6 2.05-5.55 6.05-7.3 9.85-2.35 5.2-3.7 12.55-2.4 13.35 1.9 1.2 7.3-2.85 9.7-7.2.75-1.4 2.5-5.5 3.85-9.1 2.95-7.9 3.15-8.25 4.45-8.6 2.55-.65 1.2 5.3-3.1 13.85-4.4 8.75-9.7 13.8-14.45 13.8-1.7 0-1.95-.2-2.95-2.25M300.65 141.45c-1.8-2-2.05-2.9-2.05-7.95 0-5 .8-8.65 1.95-8.9.85-.15 1.75 1.35 1.1 1.85s-.85 6.55-.2 6.55c.3 0 .55.45.55 1s-.2 1-.5 1c-.6 0-.1 2.9.8 4.35.8 1.3 2.1 1.05 2.45-.55.25-1-.85-10.2-1.55-13.05-.2-.9-.1-1.25.45-1.25.8 0 2.5 3.85 3.35 7.5.7 3.35.6 7.85-.25 9.5-.65 1.3-1.05 1.5-2.75 1.5-1.6 0-2.25-.3-3.35-1.55M324.7 128.25c-1.05-1.6-.7-3.95 1.25-8.55 1.7-4 7.15-14.65 8.75-17.2.65-.95 1.95-3.05 3-4.6 2.05-3.15 3.75-4.6 6.2-5.15l1.6-.35-.25 4.95c-.5 10.4-4.8 22.55-9.65 27.55-4.35 4.45-9.2 5.95-10.9 3.35m6.55-4.7c4.65-4 6.3-6.65 8.5-13.8 1.45-4.65 3.75-14.3 3.75-15.8 0-.25-.3-.45-.7-.45-1.9 0-14.8 26.65-14.8 30.6 0 .75.25.9 1.15.65.6-.2 1.55-.75 2.1-1.2M264.25 87.9c-1.3-1.05-1.35-1.2-1.15-4.9.4-6.75 4.65-14.2 12.6-22 6.2-6.15 10.4-8.1 13.75-6.35 2.1 1.05 1.8 1.75-.6 1.5-2.8-.35-5.05.7-8.7 4-5.15 4.7-10.3 12.6-12.55 19.25-1.35 3.8-1.35 4.6-.15 4.6 2.65 0 10.25-7.9 16.25-16.9 4.45-6.6 5.3-7.35 6.45-5.55.35.6-.05 1.85-1.65 5-3.35 6.7-6.35 10.85-11.2 15.75-6.45 6.5-10 8-13.05 5.6" id="path15"/>
  </g>
  <path d="M113.4 449.05c-7.25-3.1-14.45-9-16.9-13.85-1.1-2.2-1.25-3.05-1.25-8.2 0-6.25.65-8.7 2.35-9.15.55-.15.85-.5.7-.8-.2-.3 1.35-6.7 3.4-14.25s4-15.05 4.25-16.65c1.35-7.5 2.1-15.25 2.35-24.65.1-5.65.3-11.1.4-12.15.1-1 0-1.75-.2-1.6-.95.6.25-1.85 1.35-2.75 2.4-1.9 2.65-1.2 2.65 8.3 0 4.8-.15 8.7-.35 8.7-.25 0-.35 1.9-.25 4.25s0 4.25-.25 4.25c-.2 0-.35 1-.25 2.25s0 2.25-.2 2.25c-.25 0-.5 1.5-.5 3.35-.05 1.85-.3 3.45-.55 3.5-.3.1-.4.75-.25 1.4.1.7 0 1.25-.3 1.25s-.4.4-.25.9c.3 1.15-1.65 8.8-2.3 9-.25.1-.35.5-.25.85.35.85-.7 4.25-1.25 4.25-.25 0-.3.55-.15 1.25.15.8-.05 1.35-.55 1.55-.45.15-.7.55-.55.95.25.55-1 3.75-4.85 12.65-.5 1.2-1.2 3.5-1.55 5.15-.3 1.6-.8 2.95-1 2.95s-.4.35-.4.75.25.75.5.75c.3 0 .5.55.5 1.2 0 1.85 1.1 6.3 1.6 6.3.2 0 .4.3.4.65 0 1.1 6.15 6.5 11.4 10 4.3 2.9 5.2 3.3 6.05 2.85 2.25-1.2 7.15-13.85 10.25-26.7 2.6-10.55 4.35-20.65 8.05-46.4 1-6.9 2.1-19.2 3-33.5.4-6.75.9-12.65 1.05-13.1.15-.4.75-.7 1.3-.65 1.5.15 1.9-1.65 2.25-9.9.15-3.85.5-7.3.8-7.6.75-1 1.75-.75 3.2.65.7.7 1.45 1.1 1.6.85.2-.2.75-2.4 1.25-4.9 1.05-5.15 3.95-13.5 5.15-14.85 1.15-1.25 1.9-1.15 3.6.65 1.65 1.7 1.8 1.6 3-2.15.35-1.05.8-1.9 1-1.9s.75.8 1.2 1.75c1.05 2.25 1.7 2.2 2.3-.1.25-1.05.75-2.9 1.05-4.15.35-1.25 1.85-5.75 3.35-10.1 2.15-6 2.95-7.75 3.55-7.55.55.25.65.8.4 2.45-.25 2.05-3.05 11.3-3.7 12.45-.2.3-.35.75-.4 1.05s-.65 2.4-1.35 4.75c-.7 2.3-1.45 5-1.65 5.95-.15.95-.55 2.15-.8 2.65-.65 1.3-2.55.9-2.9-.6l-.25-1.2-.6 1.35c-.9 1.9-3.35 1.8-5.45-.25l-1.65-1.6-.25 1.2c-1.3 6.35-2.35 12.4-2.85 15.85-.65 4.6-1.75 6.6-3.75 6.6-.65 0-1.65-.45-2.25-1.05-.55-.55-1.1-.95-1.2-.85-.05.1-.3 2.2-.45 4.65-.75 10.85-1.1 12.25-2.8 12.25-.95 0-1 .4-1 10.3 0 14.25-.75 24.9-3 42.95-2.2 17.45-3.75 26.5-6.2 36-4 15.4-10.5 28.8-14 28.75-.55 0-2.55-.65-4.4-1.45M275.25 381.55c-7.5-2.05-17.4-7.2-22.5-11.75-1.85-1.65-1.9-1.8-.95-2.1.75-.2 1.05-.7 1.05-1.6 0-2.75 1.25-7.7 2.85-11.2.65-1.45 4.15-7.6 7.75-13.65 3.65-6.05 9.1-15.95 12.15-22 6.3-12.5 13.05-25.2 14.7-27.7.85-1.3 1-1.95.7-2.85-.8-2.1-2.5-14.8-2.5-18.8v-3.8l-2.25-1.1c-6.2-3-16.55-18.7-20.8-31.6-1.4-4.2-1.95-5.1-5.1-8.65-1.95-2.2-3.65-4-3.75-4s-.65 1.15-1.2 2.5c-2.2 5.7-5.5 12.75-6 12.75-.2 0-.4.3-.4.7 0 1.3-4.15 5.35-7.5 7.3-1.9 1.1-4.65 3.15-6.2 4.55-1.5 1.4-3 2.4-3.3 2.2-.7-.45-.65-3.6.15-4.25.95-.8 3.9-2.7 7.7-4.9 4.95-2.9 7.1-5.5 11.05-13.45 1.95-3.8 3.9-7.45 4.45-8.1 1.35-1.65 2.9-1.15 6.45 2.05 2.2 2.05 3.3 3.6 4.85 6.9 1.1 2.35 2 4.55 2 4.9 0 .3.2.6.45.6s.3.25.15.5c-.15.3-.05.5.25.5s.4.25.25.5c-.15.3-.05.5.25.5s.4.25.25.5c-.15.3-.1.5.15.5s.75.75 1.15 1.6c.35.9.8 1.75.95 1.9s.85 1.15 1.5 2.25c2.05 3.35 6.85 9.6 12.45 16.2 2 2.35 3.5 4.5 3.35 4.85-.15.4-.05.7.15.7.4 0 1.25 4.05 1.3 6 0 .4.15.9.4 1.05.2.15.4 1.9.5 3.85.05 2 .25 3.6.5 3.6.2 0 .35 2.05.35 4.5 0 2.95-.2 4.5-.55 4.5-.3 0-.45.35-.25.75.15.4.05.75-.2.75s-.35.3-.2.7c.35.85-3.1 10.55-4.1 11.5-.35.4-.5.8-.35.95.45.45-1.9 6.4-2.65 6.7-.35.1-.55.5-.4.85.3.75-4.1 9.8-4.75 9.8-.25 0-.35.45-.2 1 .15.6-.05 1.1-.55 1.3-.45.15-.65.55-.5.8.5.8-4.4 10.4-5.25 10.4-.4 0-.6.15-.4.3.5.5-.7 3.2-1.5 3.2-.4 0-.6.2-.45.45.45.7-.25 2.05-1.05 2.05-.4 0-.55.2-.4.5.35.55-1.25 3.5-1.85 3.5-.2 0-.4.25-.4.5 0 .9-3.6 6-4.25 6-.35 0-.6.4-.55.85 0 .45-.4 1.1-1 1.35-.55.3-.95.8-.85 1.1.1.35-.85 1.5-2.1 2.6s-2.25 2.25-2.25 2.55-.2.55-.4.55-.3.8-.2 1.75 0 1.75-.2 1.75c-.5 0-.6 4.25-.15 4.7.15.2 1.6.65 3.2 1.1 1.65.4 6.35 2.2 10.45 3.95 9.4 3.95 12.5 4.85 16.3 4.7 1.65-.05 3.15 0 3.3.2.2.15.2.85 0 1.55-.7 2.85-7.05 4-13.05 2.35M64.5 347.65c-.4-.15-1.05-.6-1.4-.95-.35-.4-.95-.85-1.3-1.05-.75-.45-3.8-4.6-3.8-5.2s5.05-.8 8-.35c1.5.25 4.6 1.15 6.9 2 4.05 1.5 5.1 2.55 3.25 3.25-.5.2-1.2.65-1.6 1-.35.4-1.1.55-1.65.35-.6-.2-1.2-.05-1.4.35-.45.7-5.75 1.15-7 .6M107.6 291.15c-.4-.15-.05-.8 1-1.95.9-.95 1.8-1.7 1.95-1.7.75 0 9.25-7.6 9.1-8.1-.1-.25.1-.4.4-.4.25 0 .4-.2.25-.45s.05-1.4.45-2.6c1.15-3.2 1.5-8.8.8-12.55-.9-4.55-1.15-4.8-2.75-2.4-.7 1.1-1.15 2-.95 2 .25 0 0 .25-.5.55-.45.25-1.2 1.2-1.65 2.1s-1.15 1.8-1.55 2c-.35.25-.55.6-.4.9.2.25-.05.6-.45.75-.45.15-.65.5-.5.75s-.1.6-.5.75c-.45.15-.65.5-.5.75s.1.45-.15.45c-.2 0-.95 1.25-1.65 2.75s-1.5 2.75-1.8 2.75c-.95 0-3.1 2.7-4.15 5.05-.5 1.3-1.2 2.5-1.5 2.7-.4.2-.4.6-.05 1.3.35.65.35.95 0 .95-.25 0-.45.15-.4.4 0 .2-.2.9-.55 1.6-.5 1.05-.55.8-.35-1.75.4-5.8 1.9-10.3 5.4-16.1 1.35-2.3 4.05-7.4 5.95-11.4 2.05-4.2 4.05-7.65 4.8-8.25 6.15-4.8 12 10.35 8.65 22.45-1.9 6.8-4.25 10.35-8.95 13.5-3.8 2.55-7.75 3.9-9.45 3.2" id="path16"/>
  <path d="M113.45 279.65c-.05-.25-.15-1.2-.2-2.2s-.3-2.1-.5-2.45-.1-.8.3-1.05c1.2-.75 2.9-.5 3.45.6.65 1.2.5 4.55-.25 5.05-.65.5-2.75.5-2.8.05M334.05 250.05c-1.1-1.5-1.4-3.05-.6-3.05.25 0 .7.7 1.05 1.55.45 1.05 1.1 1.6 2.05 1.8 1.9.35 1.85 1.15 0 1.15-1.05 0-1.8-.4-2.5-1.45M333.8 240.5c.15-.7.75-2.15 1.25-3.25 1.4-3.15 2.45-7.85 2.45-11.2 0-2.45.15-3.05.8-3.05 1.55 0 3.65 2.05 5.15 5.1 1.85 3.65 2 5.85.5 6.25-.8.2-.85.4-.35.7s.4.45-.35.45c-.7 0-.8.15-.35.45.9.55-1.8 5-3.1 5.05-1.3 0-.7-2.1 1.5-5.05 1.9-2.6 2.15-4.6.95-6.95-1.1-2.1-1.5-1.85-1.5.9-.05 2.55-1.95 7.1-3.05 7.1-.4 0-.55.3-.4.75.2.45 0 .75-.5.75-.45 0-.75.25-.65.55.05.3-.35.8-.9 1.1-.55.35-1.2.85-1.4 1.1-.25.3-.25-.05-.05-.75M341.15 191.65c-1.05-.35-.75-2 .9-5.3.8-1.7 1.6-3.15 1.65-3.25.45-.45 2.8.6 2.8 1.25 0 1.75-4.35 7.65-5.35 7.3M135.7 189.25c-.5-.4-1.4-.75-1.95-.75-.55-.05-.75-.2-.4-.3.3-.15 1.2-2.25 1.95-4.75.75-2.45 1.55-4.45 1.8-4.45s.3-.25.15-.5c-.45-.75.7-2 1.55-1.65.75.3 1 2.15.25 2.15-.25 0-.35.45-.2 1 .4 1.45-.9 7.55-1.65 7.85-.35.1-.55.65-.45 1.2.25 1.15.2 1.15-1.05.2" id="path17"/>
  <path style="fill:#ffffff;stroke:#007fc8;stroke-width:0.011455;paint-order:markers fill stroke" d="m 111.3067,273.98615 c -0.82665,0.0965 -1.37442,0.85437 -1.75942,1.5254 -0.39636,0.63898 -0.60606,1.38167 -0.55923,2.13551 -0.0147,1.09989 0.40897,2.32164 1.39564,2.90459 0.77135,0.44924 1.83431,0.12366 2.34157,-0.57186 0.38624,-0.74992 0.22579,-1.63706 0.23129,-2.44771 -0.0793,-1.12137 -0.14907,-2.38545 -0.95204,-3.25452 -0.18425,-0.18138 -0.435,-0.30432 -0.69781,-0.29141 z" id="path20"/>
  <path style="fill:#ffffff;stroke:#007fc8;stroke-width:0.011455;paint-order:markers fill stroke" d="m 118.18295,265.93363 c -0.58972,0.0689 -0.99603,0.8662 -0.54254,1.32661 0.36439,0.50875 1.20282,0.29007 1.37505,-0.27508 0.20928,-0.53055 -0.30453,-1.07002 -0.83251,-1.05153 z" id="path21"/>
</svg>