<svg xmlns="http://www.w3.org/2000/svg" version="1.1" id="Layer_1" x="0" y="0" xml:space="preserve" width="788.957" height="687.4"><g id="XMLID_52_" transform="translate(-110.072 -100)"><path id="XMLID_37_" class="st1" d="M455.7 501.5l139 114.2c6.9 5.7 16.9 5.7 23.8 0v0c9.1-7.5 9.1-21.5 0-28.9l-150-123.2c-7.4-6.1-18.1-6.1-25.6 0L293 586.7c-9.1 7.5-9.1 21.5 0 28.9v0c6.9 5.7 16.9 5.7 23.8 0z" fill="none" stroke="#cecece" stroke-width="6" stroke-linecap="round" stroke-linejoin="round" stroke-miterlimit="10"/><path id="XMLID_44_" class="st1" fill="none" stroke="#cecece" stroke-width="6" stroke-linecap="round" stroke-linejoin="round" stroke-miterlimit="10" d="M569.9 595.3l-114.2-93.8-114.2 93.8 9.9 189.1h208.7z"/><path id="XMLID_36_" class="st1" d="M455.7 623.2v0c-40.7 0-72.6 27.3-71.4 60l3.8 101.2h135.2l3.8-101.2c1.2-32.7-30.7-60-71.4-60z" fill="none" stroke="#cecece" stroke-width="6" stroke-linecap="round" stroke-linejoin="round" stroke-miterlimit="10"/><path id="XMLID_41_" class="st1" d="M435 590c1.9 4.4 7 6.4 11.4 4.6 2.8-1.1 6-1.8 9.3-1.8 3.3 0 6.5.6 9.3 1.8 4.4 1.8 9.5-.2 11.4-4.6.9-2.1 1.4-4.4 1.4-6.7 0-10.6-9.9-19.1-22.2-19.1-12.3 0-22.2 8.6-22.2 19.1.2 2.4.6 4.6 1.6 6.7z" fill="none" stroke="#cecece" stroke-width="6" stroke-linecap="round" stroke-linejoin="round" stroke-miterlimit="10"/><ellipse id="XMLID_42_" transform="rotate(-38.128 429.107 555.66)" class="st1" cx="429.1" cy="555.6" rx="7.8" ry="6.6" fill="none" stroke="#cecece" stroke-width="6" stroke-linecap="round" stroke-linejoin="round" stroke-miterlimit="10"/><ellipse id="XMLID_34_" class="st1" cx="455.7" cy="546.6" rx="10.2" ry="6.9" fill="none" stroke="#cecece" stroke-width="6" stroke-linecap="round" stroke-linejoin="round" stroke-miterlimit="10"/><ellipse id="XMLID_39_" transform="rotate(-51.872 479.98 558.348)" class="st1" cx="480" cy="558.3" rx="6.6" ry="7.8" fill="none" stroke="#cecece" stroke-width="6" stroke-linecap="round" stroke-linejoin="round" stroke-miterlimit="10"/></g><path id="XMLID_10_" class="st3" fill="none" stroke="#00354c" stroke-width="6" stroke-linecap="round" stroke-linejoin="round" stroke-miterlimit="10" d="M78.428 684.2h11.5"/><path id="XMLID_72_" class="st4" d="M385.128 525.8c2.9-17.4 9.8-37.4 18-54.1-11.4 18.6-21.7 45.1-25.4 67.5-5.7 34.1-3.8 65.4 4.9 85.3l5.2-18.8c-6.8-19.9-7.9-48.7-2.7-79.9z" fill="#d1d1d1"/><g id="XMLID_51_" transform="translate(-110.072 -100)"><path id="XMLID_43_" class="st5" d="M255.4 454.2c-28.6-2-29.6 31-24.6 53 2 12-11 19-16.9 28.2-2.5 4-4.8 8.7-6 14.7-3.3 15.9 6.1 29.4 7.6 43.9.4 3.6.3 7.3-.6 11.1-1.1 4.1-3.1 8.1-5.1 12.1-16 18-42 39-24 63 3.3 4.2 6.9 7.9 10.8 11.2 31.2 26.8 78.2 24.8 114.2 7.8 13-7 26-17 29-32 2-16-5-31-15.7-41.6-3.2-3.5-6.7-6.8-10.3-9.7-2.6-4-4.2-7.8-5-11.5-1.9-9.2 1-17.8 3.8-26.5 1.4-4.3 2.7-8.7 3.4-13.2 3.8-22.6-18.2-36.6-30.2-52.6-5-7-3-16-1-24 4-19-11-35-28.9-34" fill="#01d392"/><path id="XMLID_35_" class="st3" d="M259.9 548.9c-4.6 21.7-5.6 43-5 64.3.2 5.3 13.9 94 5.1 132.8-.2 5.6-.2 8.9-.2 8.9" fill="none" stroke="#00354c" stroke-width="6" stroke-linecap="round" stroke-linejoin="round" stroke-miterlimit="10"/><path id="XMLID_45_" class="st3" fill="none" stroke="#00354c" stroke-width="6" stroke-linecap="round" stroke-linejoin="round" stroke-miterlimit="10" d="M274.8 632.8l-14.9 21.5"/><path id="XMLID_32_" class="st6" d="M283.8 787.2h-46c-.6 0-1.1-.4-1.2-1l-11.8-49.8h72L285 786.3c-.1.5-.6.9-1.2.9z" fill="#f7bf46"/><path id="XMLID_47_" class="st7" opacity=".68" fill="none" stroke="#f7bf46" stroke-miterlimit="10" d="M232 764h57.6"/><path id="XMLID_48_" class="st7" opacity=".68" fill="none" stroke="#f7bf46" stroke-miterlimit="10" d="M232.9 767.6h55.8"/></g><path id="XMLID_23_" class="st3" fill="none" stroke="#00354c" stroke-width="6" stroke-linecap="round" stroke-linejoin="round" stroke-miterlimit="10" d="M393.328 673v11"/><ellipse id="XMLID_69_" class="st5" cx="80.228" cy="489.2" rx="10.7" ry="17.4" fill="#01d392"/><path id="XMLID_74_" transform="rotate(45)" class="st5" fill="#01d392" stroke-width="1" d="M886.476-84.152h14v14h-14z"/><path id="XMLID_119_" transform="rotate(45)" class="st5" fill="#01d392" stroke-width="1" d="M636.839-239.304h9v9h-9z"/><g id="XMLID_104_" transform="translate(-110.072 -100)"><g id="XMLID_75_"><path id="XMLID_76_" class="st8" fill="none" stroke="#00354c" stroke-width="3" stroke-linecap="round" stroke-linejoin="round" stroke-miterlimit="10" d="M227.1 256.3v14.3"/><path id="XMLID_78_" class="st8" fill="none" stroke="#00354c" stroke-width="3" stroke-linecap="round" stroke-linejoin="round" stroke-miterlimit="10" d="M227.1 288.7V303"/></g><g id="XMLID_77_"><path id="XMLID_80_" class="st8" fill="none" stroke="#00354c" stroke-width="3" stroke-linecap="round" stroke-linejoin="round" stroke-miterlimit="10" d="M206.8 268l12.4 7.1"/><path id="XMLID_79_" class="st8" fill="none" stroke="#00354c" stroke-width="3" stroke-linecap="round" stroke-linejoin="round" stroke-miterlimit="10" d="M235 284.2l12.4 7.1"/></g><g id="XMLID_81_"><path id="XMLID_83_" class="st8" fill="none" stroke="#00354c" stroke-width="3" stroke-linecap="round" stroke-linejoin="round" stroke-miterlimit="10" d="M206.8 291.3l12.4-7.1"/><path id="XMLID_82_" class="st8" fill="none" stroke="#00354c" stroke-width="3" stroke-linecap="round" stroke-linejoin="round" stroke-miterlimit="10" d="M235 275.1l12.4-7.1"/></g></g><g id="XMLID_91_" transform="translate(-110.072 -100)"><path id="XMLID_93_" class="st8" fill="none" stroke="#00354c" stroke-width="3" stroke-linecap="round" stroke-linejoin="round" stroke-miterlimit="10" d="M853.1 317.4v9.9"/><path id="XMLID_92_" class="st8" fill="none" stroke="#00354c" stroke-width="3" stroke-linecap="round" stroke-linejoin="round" stroke-miterlimit="10" d="M853.1 339.9v10"/></g><g id="XMLID_88_" transform="translate(-110.072 -100)"><path id="XMLID_90_" class="st8" fill="none" stroke="#00354c" stroke-width="3" stroke-linecap="round" stroke-linejoin="round" stroke-miterlimit="10" d="M839.1 325.5l8.6 5"/><path id="XMLID_89_" class="st8" fill="none" stroke="#00354c" stroke-width="3" stroke-linecap="round" stroke-linejoin="round" stroke-miterlimit="10" d="M858.6 336.8l8.6 4.9"/></g><g id="XMLID_85_" transform="translate(-110.072 -100)"><path id="XMLID_87_" class="st8" fill="none" stroke="#00354c" stroke-width="3" stroke-linecap="round" stroke-linejoin="round" stroke-miterlimit="10" d="M839.1 341.7l8.6-4.9"/><path id="XMLID_86_" class="st8" fill="none" stroke="#00354c" stroke-width="3" stroke-linecap="round" stroke-linejoin="round" stroke-miterlimit="10" d="M858.6 330.5l8.6-5"/></g><circle id="XMLID_84_" class="st6" cx="666.428" cy="364.8" r="15.1" fill="#f7bf46"/><g id="XMLID_103_" transform="translate(-110.072 -100)"><g id="XMLID_100_"><path id="XMLID_102_" class="st8" fill="none" stroke="#00354c" stroke-width="3" stroke-linecap="round" stroke-linejoin="round" stroke-miterlimit="10" d="M776.5 442.8v12.1"/><path id="XMLID_101_" class="st8" fill="none" stroke="#00354c" stroke-width="3" stroke-linecap="round" stroke-linejoin="round" stroke-miterlimit="10" d="M776.5 474.6v12.1"/></g><g id="XMLID_97_"><path id="XMLID_99_" class="st8" fill="none" stroke="#00354c" stroke-width="3" stroke-linecap="round" stroke-linejoin="round" stroke-miterlimit="10" d="M757.5 453.8l10.5 6"/><path id="XMLID_98_" class="st8" fill="none" stroke="#00354c" stroke-width="3" stroke-linecap="round" stroke-linejoin="round" stroke-miterlimit="10" d="M785.1 469.7l10.5 6"/></g><g id="XMLID_94_"><path id="XMLID_96_" class="st8" fill="none" stroke="#00354c" stroke-width="3" stroke-linecap="round" stroke-linejoin="round" stroke-miterlimit="10" d="M757.5 476.4l10.5-6.7"/><path id="XMLID_95_" class="st8" fill="none" stroke="#00354c" stroke-width="3" stroke-linecap="round" stroke-linejoin="round" stroke-miterlimit="10" d="M785.1 459.8l10.5-6"/></g></g><path id="XMLID_106_" class="st9" fill="none" stroke="#00354c" stroke-width="4" stroke-linecap="round" stroke-linejoin="round" stroke-miterlimit="10" d="M440.428 40.9v14.7"/><path id="XMLID_105_" class="st9" fill="none" stroke="#00354c" stroke-width="4" stroke-linecap="round" stroke-linejoin="round" stroke-miterlimit="10" d="M447.728 48.2h-14.599"/><path id="XMLID_110_" class="st9" fill="none" stroke="#00354c" stroke-width="4" stroke-linecap="round" stroke-linejoin="round" stroke-miterlimit="10" d="M779.628 555.1v14.7"/><path id="XMLID_109_" class="st9" fill="none" stroke="#00354c" stroke-width="4" stroke-linecap="round" stroke-linejoin="round" stroke-miterlimit="10" d="M786.928 562.5h-14.7"/><path id="XMLID_107_" class="st9" fill="none" stroke="#00354c" stroke-width="4" stroke-linecap="round" stroke-linejoin="round" stroke-miterlimit="10" d="M265.129 296v9"/><path id="XMLID_63_" class="st9" fill="none" stroke="#00354c" stroke-width="4" stroke-linecap="round" stroke-linejoin="round" stroke-miterlimit="10" d="M269.629 300.5h-9"/><path id="XMLID_108_" transform="rotate(45)" class="st6" fill="#f7bf46" stroke-width="1" d="M416.858 101.142h10v10h-10z"/><path id="XMLID_111_" class="st9" fill="none" stroke="#00354c" stroke-width="4" stroke-linecap="round" stroke-linejoin="round" stroke-miterlimit="10" d="M2.028 331.2h26.4"/><path id="XMLID_22_" class="st9" fill="none" stroke="#00354c" stroke-width="4" stroke-linecap="round" stroke-linejoin="round" stroke-miterlimit="10" d="M37.428 331.2h10.1"/><path id="XMLID_113_" class="st9" fill="none" stroke="#00354c" stroke-width="4" stroke-linecap="round" stroke-linejoin="round" stroke-miterlimit="10" d="M16.728 344h29.2"/><path id="XMLID_117_" class="st9" fill="none" stroke="#00354c" stroke-width="4" stroke-linecap="round" stroke-linejoin="round" stroke-miterlimit="10" d="M574.128 455.1h26.3"/><path id="XMLID_116_" class="st9" fill="none" stroke="#00354c" stroke-width="4" stroke-linecap="round" stroke-linejoin="round" stroke-miterlimit="10" d="M609.428 455.1h10.1"/><path id="XMLID_115_" class="st9" fill="none" stroke="#00354c" stroke-width="4" stroke-linecap="round" stroke-linejoin="round" stroke-miterlimit="10" d="M588.728 465.8h29.3"/><path id="XMLID_66_" class="st3" fill="none" stroke="#00354c" stroke-width="6" stroke-linecap="round" stroke-linejoin="round" stroke-miterlimit="10" d="M654.928 684.2h41.3"/><path id="XMLID_30_" class="st3" fill="none" stroke="#00354c" stroke-width="6" stroke-linecap="round" stroke-linejoin="round" stroke-miterlimit="10" d="M110.928 684.2h82.7"/><circle id="XMLID_16_" class="st6" cx="590.428" cy="92.7" r="51.7" fill="#f7bf46"/><circle id="XMLID_33_" class="st6" cx="642.128" cy="51.7" r="51.7" fill="#f7bf46"/><circle id="XMLID_123_" class="st6" cx="713.828" cy="70.2" r="47.2" fill="#f7bf46"/><circle id="XMLID_126_" class="st6" cx="642.128" cy="122" r="51.5" fill="#f7bf46"/><circle id="XMLID_124_" class="st6" cx="696.928" cy="122" r="34.3" fill="#f7bf46"/><path id="XMLID_125_" class="st6" d="M588.728 227.6c0 7.8-2 12.5-9.8 12.5-7.8 0-14.2-3-14.2-10.8 0-7.8 4.1-14.8 12-14.8s12 5.3 12 13.1z" fill="#f7bf46"/><path id="XMLID_130_" class="st6" d="M616.828 188.7c0 11.8-2.9 18.8-14.7 18.8-11.8 0-21.2-4.5-21.2-16.3s9.5-21.3 21.3-21.3 14.6 7.1 14.6 18.8z" fill="#f7bf46"/><g id="g315" transform="translate(-110.072 -100)"><path id="XMLID_31_" class="st0" d="M717 640.2c.2 2.7.3 5.4.3 8.1 0 55.9-45 101.3-100.5 101.3-46.6 0-85.8-32-97.2-75.4 4.1 52.1 47.4 93.2 100.2 93.2 55.5 0 100.5-45.3 100.5-101.3.1-9-1.1-17.6-3.3-25.9z" fill="#fff"/><path id="XMLID_17_" class="st3" d="M717 640.2c.2 2.7.3 5.4.3 8.1 0 55.9-45 101.3-100.5 101.3-46.6 0-85.8-32-97.2-75.4 4.1 52.1 47.4 93.2 100.2 93.2 55.5 0 100.5-45.3 100.5-101.3.1-9-1.1-17.6-3.3-25.9z" fill="none" stroke="#00354c" stroke-width="6" stroke-linecap="round" stroke-linejoin="round" stroke-miterlimit="10"/><path id="XMLID_28_" class="st0" d="M541.3 549.2c-17-7.6-46.6 48.4-53.5 90-5.7 34.1-3.8 65.4 4.9 85.3z" fill="#fff"/><path id="XMLID_1_" class="st3" d="M541.3 549.2c-17-7.6-46.6 48.4-53.5 90-5.7 34.1-3.8 65.4 4.9 85.3z" fill="none" stroke="#00354c" stroke-width="6" stroke-linecap="round" stroke-linejoin="round" stroke-miterlimit="10"/><path id="XMLID_68_" class="st0" d="M593.7 549.2c17-7.6 46.6 48.4 53.5 90 5.7 34.1 3.8 65.4-4.9 85.3z" fill="#fff"/><path id="XMLID_56_" class="st4" d="M639.9 625.8c-2.9-17.4-9.8-37.4-18-54.1 11.4 18.6 21.7 45.1 25.4 67.5 5.7 34.1 3.8 65.4-4.9 85.3l-5.2-18.8c6.8-19.9 7.8-48.7 2.7-79.9z" fill="#d1d1d1"/><path id="XMLID_54_" class="st3" d="M593.7 549.2c17-7.6 46.6 48.4 53.5 90 5.7 34.1 3.8 65.4-4.9 85.3z" fill="none" stroke="#00354c" stroke-width="6" stroke-linecap="round" stroke-linejoin="round" stroke-miterlimit="10"/><path id="XMLID_18_" class="st0" d="M645.3 732c-1.1-16.6-44.3-196.8-56-205.8h-42.8c-11.7 9-55 189.1-56 205.8-1.3 20.7-8.1 52.2 31.2 52.2h92.5c39.2 0 32.4-31.5 31.1-52.2z" fill="#fff"/><path id="XMLID_20_" class="st4" d="M495.2 706.5s-3.1 26.4 11.7 36.1c11.6 7.7 21.8 10.8 40.9 14.3 10.3 1.9 21.5 2.7 21.5 2.7l1.2 23.7-81.4.6s-1.4-33.3.6-43.3c2-9.9 3-26.5 5.5-34.1z" fill="#d1d1d1"/><path id="XMLID_5_" class="st4" d="M641.4 706.5s3.1 26.4-11.7 36.1c-11.6 7.7-21.8 10.8-40.9 14.3-10.3 1.9-21.5 2.7-21.5 2.7l-1.2 23.7 81.4.6s1.4-33.3-.6-43.3c-2-9.9-3-26.5-5.5-34.1z" fill="#d1d1d1"/><path id="XMLID_64_" class="st6" d="M603.6 562.5c-2.5-.7-4.9-1.1-7-1.1-12.2 0-21.9 6.5-21.9 21.5 0 15.1 21.9 33 34.1 33 3.3 0 6.4-.9 9.2-2.5-4.9-18.4-9.9-36.2-14.4-50.9z" fill="#f7bf46"/><path id="XMLID_58_" class="st6" d="M511.1 692.1c13.5 0 24.5-13.3 24.5-29.7 0-15.7-10.1-28.6-22.9-29.6-5 19.6-9.7 39-13.5 55.5 3.6 2.4 7.6 3.8 11.9 3.8z" fill="#f7bf46"/><path id="XMLID_46_" class="st4" d="M543.4 530.5s7.1 5.7 23.4 5.7c13.2 0 24.8-5.7 24.8-5.7l-1-3.9h-46.5z" fill="#d1d1d1"/><path id="XMLID_4_" class="st3" d="M645.3 732c-1.1-16.6-44.3-196.8-56-205.8h-42.8c-11.7 9-55 189.1-56 205.8-1.3 20.7-8.1 52.2 31.2 52.2h92.5c39.2 0 32.4-31.5 31.1-52.2z" fill="none" stroke="#00354c" stroke-width="6" stroke-linecap="round" stroke-linejoin="round" stroke-miterlimit="10"/><path id="XMLID_9_" class="st0" d="M643 454.2c-1.9-19.5-11.5-68.8-22.3-103.3-17.2-55.1-37.4-69.5-49.1-71-1.2-.2-3.8-.2-3.8-.2s-2.5 0-3.8.2c-11.7 1.4-31.8 15.7-49.1 70.9-10.8 34.5-20.3 83.9-22.3 103.5-4.3 44 16.8 68.3 44.2 71.8 7.8 1 23.2 1 31 1 7.7 0 23.1 0 31-1 27.3-3.6 48.5-27.9 44.2-71.9z" fill="#fff"/><ellipse id="XMLID_49_" class="st4" cx="567.8" cy="479.6" rx="18.9" ry="14.9" fill="#d1d1d1"/><path id="XMLID_55_" class="st4" d="M550.5 285.5s-9 33.9-27.8 43.7c4.8-10.8 11.3-23.7 11.3-23.7s11.2-18.5 16.5-20z" fill="#d1d1d1"/><path id="XMLID_53_" class="st4" d="M571.6 280s24.4 42 44.7 58.1c0 0-4.6-29.8-9.1-38.8-4.5-9-26.5-22.1-35.6-19.3z" fill="#d1d1d1"/><path id="XMLID_15_" class="st6" d="M519.8 441.3c39.3-16.9 62.8-50.2 52.4-74.3-7.3-16.9-29.3-24.8-55.3-22.2-.6 1.9-1.3 3.9-1.9 6-10 32-18.9 76.7-21.7 98.6 8.6-1.6 17.6-4.2 26.5-8.1z" fill="#f7bf46"/><path id="XMLID_14_" class="st3" d="M624.1 487.1c-11.2 16.3-35.7 27.3-61.8 27.3-24.2 0-38.7-14.2-47.2-31.9" fill="none" stroke="#00354c" stroke-width="6" stroke-linecap="round" stroke-linejoin="round" stroke-miterlimit="10"/><ellipse id="XMLID_7_" class="st2" cx="567.8" cy="477" rx="23.7" ry="12.2" fill="#00354c"/><path id="XMLID_2_" class="st0" d="M697.9 777.9c-15.2-14.3-44.4-21.4-72.9-19.2-24.4 1.8-42.5 10.1-49.6 21.1-1.2 1.9.3 4.4 2.6 4.4h115.5c4.5 0 7.2-3.7 4.4-6.3z" fill="#fff"/><path id="XMLID_50_" class="st4" d="M697.1 777.7c-.3.1-.7.2-1.1.2H580.5c-1.4 0-2.6-.3-3.5-.9-.3.3-.7.6-1 .9-2.8 2.6-.1 6.3 4.5 6.3H696c2.3 0 3.8-2.6 2.6-4.4-.5-.8-1-1.5-1.5-2.1z" fill="#d1d1d1"/><path id="XMLID_19_" class="st3" d="M697.9 777.9c-15.2-14.3-44.4-21.4-72.9-19.2-24.4 1.8-42.5 10.1-49.6 21.1-1.2 1.9.3 4.4 2.6 4.4h115.5c4.5 0 7.2-3.7 4.4-6.3z" fill="none" stroke="#00354c" stroke-width="6" stroke-linecap="round" stroke-linejoin="round" stroke-miterlimit="10"/><path id="XMLID_8_" class="st3" fill="none" stroke="#00354c" stroke-width="6" stroke-linecap="round" stroke-linejoin="round" stroke-miterlimit="10" d="M635.4 773v11"/><path id="XMLID_25_" class="st0" d="M441 777.9c15.2-14.3 44.4-21.4 72.9-19.2 24.4 1.8 42.5 10.1 49.6 21.1 1.2 1.9-.3 4.4-2.6 4.4H445.4c-4.5 0-7.2-3.7-4.4-6.3z" fill="#fff"/><path id="XMLID_67_" class="st4" d="M562.1 777.7c-.3.1-.7.2-1.1.2H445.5c-1.4 0-2.6-.3-3.5-.9-.3.3-.7.6-1 .9-2.8 2.6-.1 6.3 4.5 6.3H561c2.3 0 3.8-2.6 2.6-4.4-.5-.8-1-1.5-1.5-2.1z" fill="#d1d1d1"/><path id="XMLID_24_" class="st3" d="M441 777.9c15.2-14.3 44.4-21.4 72.9-19.2 24.4 1.8 42.5 10.1 49.6 21.1 1.2 1.9-.3 4.4-2.6 4.4H445.4c-4.5 0-7.2-3.7-4.4-6.3z" fill="none" stroke="#00354c" stroke-width="6" stroke-linecap="round" stroke-linejoin="round" stroke-miterlimit="10"/><path id="XMLID_13_" class="st3" d="M643 454.2c-1.9-19.5-11.5-68.8-22.3-103.3-17.2-55.1-37.4-69.5-49.1-71-1.2-.2-3.8-.2-3.8-.2s-2.5 0-3.8.2c-11.7 1.4-31.8 15.7-49.1 70.9-10.8 34.5-20.3 83.9-22.3 103.5-4.3 44 16.8 68.3 44.2 71.8 7.8 1 23.2 1 31 1 7.7 0 23.1 0 31-1 27.3-3.6 48.5-27.9 44.2-71.9z" fill="none" stroke="#00354c" stroke-width="6" stroke-linecap="round" stroke-linejoin="round" stroke-miterlimit="10"/><path id="XMLID_29_" class="st0" d="M569.8 279.5s34.9-7.4 44.5-2.9c9.9 4.6 27.8 39.7 20.4 53.4-11.3 21-44.5-55-64.9-50.5z" fill="#fff"/><path id="XMLID_11_" class="st3" d="M569.8 279.5s34.9-7.4 44.5-2.9c9.9 4.6 27.8 39.7 20.4 53.4-11.3 21-44.5-55-64.9-50.5z" fill="none" stroke="#00354c" stroke-width="6" stroke-linecap="round" stroke-linejoin="round" stroke-miterlimit="10"/><path id="XMLID_27_" class="st0" d="M504.3 285.8l48.3-1.4s-44.8 48.2-65.5 58.6c-20.7 10.4.5-57.3 17.2-57.2z" fill="#fff"/><path id="XMLID_12_" class="st3" d="M504.3 285.8l48.3-1.4s-44.8 48.2-65.5 58.6c-20.7 10.4.5-57.3 17.2-57.2z" fill="none" stroke="#00354c" stroke-width="6" stroke-linecap="round" stroke-linejoin="round" stroke-miterlimit="10"/><ellipse id="XMLID_3_" class="st2" cx="548.7" cy="387.5" rx="5" ry="6.5" fill="#00354c"/><ellipse id="XMLID_6_" class="st2" cx="590.9" cy="387.5" rx="5" ry="6.5" fill="#00354c"/><path id="XMLID_57_" class="st3" fill="none" stroke="#00354c" stroke-width="6" stroke-linecap="round" stroke-linejoin="round" stroke-miterlimit="10" d="M392.3 784.2H739"/><path id="XMLID_128_" class="st6" d="M668.2 347c0 5.6-1.4 8.9-7 8.9s-10.1-2.1-10.1-7.7 4.5-10.1 10.1-10.1 7 3.3 7 8.9z" fill="#f7bf46"/></g><path id="XMLID_21_" d="M694.728 88c1.5-1.8 2.4-4.3 2.1-7-.5-4.2-6.2-6.3-8.6-6.8-3.2-.6-9.9 2.3-9.9 7.8 0 1.3-1 2.4-2.3 2.4h-45.5c-1.3 0-2.3-1.1-2.3-2.3 0-1.2-.2-2.5-.8-3.8-1.3-3-4.6-3.4-7.5-3.7-5-.6-10.3 1.9-10.3 7.4 0 2.3.8 4.3 2.2 5.9.9 1.1.9 2.7 0 3.8a9.34 9.34 0 00-2.1 7c.5 4.2 4.5 6 8.3 6.4 5 .6 10.2-2 10.2-7.4 0-1.3 1-2.4 2.3-2.4h45.5c1.3 0 2.3 1.1 2.3 2.3 0 1.2.2 2.5.8 3.8 1.3 3 6 3.7 7.8 4.1 3.2.6 9.9-2.3 9.9-7.8 0-2.3-.8-4.3-2.2-5.9-.8-1.1-.8-2.7.1-3.8z" fill="#f6f6f4"/></svg>