<svg xmlns="http://www.w3.org/2000/svg" viewBox="0 0 128 128">
  <path fill-rule="evenodd" d="M64 5.1a60.39 60.39 0 00-19.1 117.7c3.03.55 4.13-1.32 4.13-2.91 0-1.44-.05-6.2-.08-11.24-16.8 3.65-20.34-7.13-20.34-7.13-2.75-6.98-6.7-8.83-6.7-8.83-5.49-3.75.4-3.67.4-3.67 6.07.42 9.26 6.22 9.26 6.22 5.39 9.23 14.13 6.56 17.58 5.02.54-3.9 2.1-6.57 3.83-8.08-13.41-1.52-27.51-6.7-27.51-29.84 0-6.6 2.36-11.98 6.22-16.21-.63-1.52-2.7-7.66.58-15.98 0 0 5.07-1.62 16.61 6.19A57.87 57.87 0 0164 34.3a58 58 0 0115.13 2.04c11.52-7.82 16.59-6.2 16.59-6.2 3.28 8.32 1.22 14.47.59 15.99a23.33 23.33 0 016.21 16.2c0 23.2-14.12 28.3-27.57 29.8 2.17 1.88 4.1 5.55 4.1 11.19 0 8.08-.07 14.58-.07 16.57 0 1.6 1.09 3.49 4.15 2.9A60.4 60.4 0 0064 5.1z" clip-rule="evenodd"/>
  <path d="M26.48 91.8c-.13.3-.6.4-1.03.2-.44-.2-.69-.61-.54-.92.13-.3.6-.39 1.04-.18.44.2.69.6.53.9zm2.45 2.73c-.29.27-.85.15-1.23-.28-.4-.42-.47-.98-.18-1.25.3-.27.85-.14 1.24.28.4.43.47.98.17 1.26zM31.31 98.02c-.37.25-.97 0-1.35-.53-.37-.54-.37-1.18.01-1.44s.97-.02 1.35.5c.37.55.37 1.2 0 1.46zm3.26 3.35c-.33.37-1.03.27-1.55-.23-.53-.48-.67-1.18-.34-1.54.33-.37 1.04-.26 1.56.23.53.49.69 1.18.33 1.54zm4.5 1.95c-.14.48-.82.7-1.5.49-.69-.2-1.14-.76-1-1.24.14-.47.83-.7 1.52-.48.68.2 1.12.75.98 1.23zm4.95.37c.01.5-.57.9-1.28.92-.73.01-1.31-.4-1.32-.88 0-.5.57-.91 1.3-.93.7 0 1.3.4 1.3.88zm4.6-.79c.08.49-.42.99-1.13 1.12-.7.13-1.35-.17-1.44-.65-.09-.5.42-1 1.12-1.13.71-.12 1.35.17 1.44.66zm0 0"/>
</svg>
