<svg xmlns="http://www.w3.org/2000/svg" width="226.73" height="226.73">
  <path fill="#1ed760" d="M179.42 100.7c-36-21.38-95.36-23.34-129.72-12.92a10.44 10.44 0 1 1-6.07-19.98c39.45-11.97 105.01-9.66 146.45 14.93a10.44 10.44 0 0 1-10.66 17.97zm-1.18 31.65a8.71 8.71 0 0 1-11.98 2.87c-30-18.44-75.76-23.79-111.26-13.01a8.72 8.72 0 0 1-10.86-5.8 8.72 8.72 0 0 1 5.8-10.86c40.55-12.3 90.97-6.34 125.43 14.84a8.7 8.7 0 0 1 2.87 11.96zm-13.67 30.4c-2 3.3-6.29 4.33-9.56 2.32-26.23-16.02-59.23-19.64-98.1-10.76a6.96 6.96 0 1 1-3.1-13.57c42.54-9.72 79.02-5.54 108.46 12.45 3.28 2 4.31 6.29 2.3 9.57zM113.37 1.72C51.7 1.7 1.7 51.7 1.7 113.37c0 61.67 50 111.65 111.66 111.65s111.65-49.98 111.65-111.65C225.02 51.7 175.03 1.7 113.37 1.7"/>
</svg>
