<svg xmlns="http://www.w3.org/2000/svg" viewBox="0 0 32 32">
  <path fill="#0065a9" d="M29.01 5.03l-5.77-2.78a1.74 1.74 0 00-1.98.34L2.38 19.8a1.17 1.17 0 00-.08 1.65l.08.07 1.54 1.4A1.17 1.17 0 005.4 23L28.14 5.75a1.16 1.16 0 011.86.92v-.06a1.75 1.75 0 00-.99-1.58z"/>
  <path fill="#007acc" d="M29.01 26.97l-5.77 2.78a1.75 1.75 0 01-1.98-.34L2.38 12.2a1.17 1.17 0 01-.08-1.65l.08-.07 1.54-1.4A1.17 1.17 0 015.4 9l22.73 17.24a1.16 1.16 0 001.86-.92v.07a1.75 1.75 0 01-.99 1.57z"/>
  <path fill="#1f9cf0" d="M23.24 29.75a1.75 1.75 0 01-1.98-.34 1.02 1.02 0 001.74-.73V3.32a1.02 1.02 0 00-1.75-.73 1.74 1.74 0 011.99-.34l5.77 2.77A1.75 1.75 0 0130 6.6v18.8a1.75 1.75 0 01-1 1.58z"/>
</svg>
